<svg width="895" height="235" viewBox="0 0 895 235" fill="none" xmlns="http://www.w3.org/2000/svg">
<rect width="895" height="235" fill="white"/>
<mask id="path-2-inside-1_1_36" fill="white">
<path d="M697 100C697 113.132 691.387 126.136 680.482 138.268C669.577 150.401 653.592 161.425 633.442 170.711C613.292 179.997 589.37 187.362 563.042 192.388C536.715 197.413 508.497 200 480 200C451.503 200 423.285 197.413 396.958 192.388C370.63 187.362 346.708 179.997 326.558 170.711C306.408 161.425 290.423 150.401 279.518 138.268C268.613 126.136 263 113.132 263 100L480 100H697Z"/>
</mask>
<path d="M697 100C697 113.132 691.387 126.136 680.482 138.268C669.577 150.401 653.592 161.425 633.442 170.711C613.292 179.997 589.37 187.362 563.042 192.388C536.715 197.413 508.497 200 480 200C451.503 200 423.285 197.413 396.958 192.388C370.63 187.362 346.708 179.997 326.558 170.711C306.408 161.425 290.423 150.401 279.518 138.268C268.613 126.136 263 113.132 263 100L480 100H697Z" stroke="#6E3DC1" stroke-width="2" stroke-dasharray="2 2" mask="url(#path-2-inside-1_1_36)"/>
<rect x="438" y="184" width="90.8567" height="28" fill="white"/>
<path d="M443.441 205V191.909H451.291V193.315H445.027V197.739H450.703V199.145H445.027V205H443.441ZM457.197 205.205C456.251 205.205 455.435 204.996 454.749 204.578C454.067 204.156 453.541 203.568 453.17 202.814C452.804 202.055 452.62 201.173 452.62 200.168C452.62 199.162 452.804 198.276 453.17 197.509C453.541 196.737 454.056 196.136 454.717 195.706C455.382 195.271 456.157 195.054 457.044 195.054C457.555 195.054 458.06 195.139 458.558 195.31C459.057 195.48 459.511 195.757 459.92 196.141C460.329 196.52 460.655 197.023 460.898 197.649C461.141 198.276 461.262 199.047 461.262 199.963V200.602H453.694V199.298H459.728C459.728 198.744 459.617 198.25 459.396 197.815C459.179 197.381 458.867 197.038 458.463 196.786C458.062 196.535 457.589 196.409 457.044 196.409C456.443 196.409 455.923 196.558 455.484 196.857C455.049 197.151 454.715 197.534 454.48 198.007C454.246 198.48 454.129 198.987 454.129 199.528V200.398C454.129 201.139 454.257 201.768 454.512 202.283C454.772 202.795 455.132 203.185 455.593 203.453C456.053 203.717 456.588 203.849 457.197 203.849C457.593 203.849 457.951 203.794 458.271 203.683C458.595 203.568 458.874 203.398 459.108 203.172C459.343 202.942 459.524 202.656 459.652 202.315L461.109 202.724C460.956 203.219 460.698 203.653 460.335 204.028C459.973 204.399 459.526 204.689 458.993 204.898C458.46 205.102 457.862 205.205 457.197 205.205ZM467.674 205.205C466.728 205.205 465.911 204.996 465.225 204.578C464.544 204.156 464.017 203.568 463.647 202.814C463.28 202.055 463.097 201.173 463.097 200.168C463.097 199.162 463.28 198.276 463.647 197.509C464.017 196.737 464.533 196.136 465.193 195.706C465.858 195.271 466.634 195.054 467.52 195.054C468.032 195.054 468.536 195.139 469.035 195.31C469.534 195.48 469.987 195.757 470.397 196.141C470.806 196.52 471.132 197.023 471.375 197.649C471.617 198.276 471.739 199.047 471.739 199.963V200.602H464.171V199.298H470.205C470.205 198.744 470.094 198.25 469.872 197.815C469.655 197.381 469.344 197.038 468.939 196.786C468.539 196.535 468.066 196.409 467.52 196.409C466.919 196.409 466.399 196.558 465.96 196.857C465.526 197.151 465.191 197.534 464.957 198.007C464.723 198.48 464.605 198.987 464.605 199.528V200.398C464.605 201.139 464.733 201.768 464.989 202.283C465.249 202.795 465.609 203.185 466.069 203.453C466.529 203.717 467.064 203.849 467.674 203.849C468.07 203.849 468.428 203.794 468.747 203.683C469.071 203.568 469.35 203.398 469.585 203.172C469.819 202.942 470 202.656 470.128 202.315L471.585 202.724C471.432 203.219 471.174 203.653 470.812 204.028C470.45 204.399 470.002 204.689 469.47 204.898C468.937 205.102 468.338 205.205 467.674 205.205ZM477.741 205.205C476.923 205.205 476.201 204.998 475.574 204.585C474.948 204.167 474.458 203.579 474.104 202.82C473.75 202.058 473.573 201.156 473.573 200.116C473.573 199.085 473.75 198.19 474.104 197.432C474.458 196.673 474.95 196.087 475.581 195.674C476.211 195.261 476.94 195.054 477.767 195.054C478.406 195.054 478.911 195.161 479.282 195.374C479.657 195.582 479.942 195.821 480.138 196.089C480.338 196.354 480.494 196.571 480.605 196.741H480.732V191.909H482.241V205H480.784V203.491H480.605C480.494 203.67 480.336 203.896 480.132 204.169C479.927 204.437 479.635 204.678 479.256 204.891C478.877 205.1 478.372 205.205 477.741 205.205ZM477.946 203.849C478.551 203.849 479.062 203.692 479.48 203.376C479.897 203.057 480.215 202.616 480.432 202.053C480.649 201.487 480.758 200.832 480.758 200.091C480.758 199.358 480.652 198.717 480.438 198.167C480.225 197.613 479.91 197.183 479.492 196.876C479.075 196.565 478.559 196.409 477.946 196.409C477.306 196.409 476.774 196.573 476.348 196.901C475.926 197.225 475.608 197.666 475.395 198.224C475.186 198.778 475.082 199.401 475.082 200.091C475.082 200.79 475.188 201.425 475.402 201.996C475.619 202.562 475.938 203.014 476.36 203.351C476.786 203.683 477.315 203.849 477.946 203.849ZM485.418 205V191.909H486.926V196.741H487.054C487.165 196.571 487.318 196.354 487.514 196.089C487.715 195.821 488 195.582 488.371 195.374C488.746 195.161 489.253 195.054 489.892 195.054C490.719 195.054 491.448 195.261 492.078 195.674C492.709 196.087 493.201 196.673 493.555 197.432C493.909 198.19 494.085 199.085 494.085 200.116C494.085 201.156 493.909 202.058 493.555 202.82C493.201 203.579 492.711 204.167 492.085 204.585C491.458 204.998 490.736 205.205 489.918 205.205C489.287 205.205 488.782 205.1 488.403 204.891C488.024 204.678 487.732 204.437 487.527 204.169C487.323 203.896 487.165 203.67 487.054 203.491H486.875V205H485.418ZM486.901 200.091C486.901 200.832 487.009 201.487 487.227 202.053C487.444 202.616 487.762 203.057 488.179 203.376C488.597 203.692 489.108 203.849 489.713 203.849C490.344 203.849 490.87 203.683 491.292 203.351C491.718 203.014 492.038 202.562 492.251 201.996C492.468 201.425 492.577 200.79 492.577 200.091C492.577 199.401 492.47 198.778 492.257 198.224C492.049 197.666 491.731 197.225 491.305 196.901C490.883 196.573 490.353 196.409 489.713 196.409C489.1 196.409 488.584 196.565 488.166 196.876C487.749 197.183 487.433 197.613 487.22 198.167C487.007 198.717 486.901 199.358 486.901 200.091ZM499.282 205.23C498.66 205.23 498.095 205.113 497.588 204.879C497.081 204.64 496.679 204.297 496.38 203.849C496.082 203.398 495.933 202.852 495.933 202.213C495.933 201.651 496.044 201.195 496.265 200.845C496.487 200.491 496.783 200.214 497.154 200.014C497.524 199.814 497.933 199.665 498.381 199.567C498.833 199.464 499.286 199.384 499.742 199.324C500.339 199.247 500.823 199.19 501.193 199.151C501.568 199.109 501.841 199.038 502.012 198.94C502.186 198.842 502.274 198.672 502.274 198.429V198.378C502.274 197.747 502.101 197.257 501.756 196.908C501.415 196.558 500.897 196.384 500.203 196.384C499.482 196.384 498.918 196.541 498.509 196.857C498.1 197.172 497.812 197.509 497.646 197.866L496.214 197.355C496.47 196.759 496.811 196.294 497.237 195.962C497.667 195.625 498.136 195.391 498.643 195.259C499.154 195.122 499.657 195.054 500.152 195.054C500.467 195.054 500.829 195.092 501.238 195.169C501.652 195.241 502.05 195.393 502.433 195.623C502.821 195.853 503.143 196.2 503.399 196.665C503.654 197.129 503.782 197.751 503.782 198.531V205H502.274V203.67H502.197C502.095 203.884 501.924 204.112 501.686 204.354C501.447 204.597 501.13 204.804 500.733 204.974C500.337 205.145 499.853 205.23 499.282 205.23ZM499.512 203.875C500.109 203.875 500.612 203.758 501.021 203.523C501.434 203.289 501.745 202.987 501.954 202.616C502.167 202.245 502.274 201.855 502.274 201.446V200.065C502.21 200.142 502.069 200.212 501.852 200.276C501.639 200.336 501.392 200.389 501.11 200.436C500.833 200.479 500.563 200.517 500.299 200.551C500.039 200.581 499.828 200.607 499.666 200.628C499.274 200.679 498.907 200.762 498.566 200.877C498.23 200.988 497.957 201.156 497.748 201.382C497.544 201.604 497.441 201.906 497.441 202.29C497.441 202.814 497.635 203.21 498.023 203.479C498.415 203.743 498.911 203.875 499.512 203.875ZM510.524 205.205C509.604 205.205 508.811 204.987 508.146 204.553C507.482 204.118 506.97 203.519 506.612 202.756C506.254 201.994 506.075 201.122 506.075 200.142C506.075 199.145 506.259 198.265 506.625 197.502C506.996 196.735 507.511 196.136 508.172 195.706C508.837 195.271 509.612 195.054 510.499 195.054C511.189 195.054 511.811 195.182 512.365 195.438C512.919 195.693 513.373 196.051 513.727 196.511C514.08 196.972 514.3 197.509 514.385 198.122H512.876C512.761 197.675 512.506 197.278 512.109 196.933C511.717 196.584 511.189 196.409 510.524 196.409C509.936 196.409 509.421 196.562 508.977 196.869C508.538 197.172 508.195 197.6 507.948 198.154C507.705 198.704 507.584 199.349 507.584 200.091C507.584 200.849 507.703 201.51 507.942 202.072C508.185 202.635 508.526 203.072 508.965 203.383C509.408 203.694 509.928 203.849 510.524 203.849C510.916 203.849 511.272 203.781 511.592 203.645C511.911 203.509 512.182 203.312 512.403 203.057C512.625 202.801 512.783 202.494 512.876 202.136H514.385C514.3 202.716 514.089 203.238 513.752 203.702C513.42 204.163 512.979 204.529 512.429 204.802C511.884 205.07 511.249 205.205 510.524 205.205ZM517.997 201.42L517.971 199.554H518.278L522.573 195.182H524.44L519.863 199.81H519.735L517.997 201.42ZM516.59 205V191.909H518.099V205H516.59ZM522.829 205L518.994 200.142L520.068 199.094L524.747 205H522.829Z" fill="#6E3DC1"/>
<line x1="265" y1="100.5" x2="700" y2="100.5" stroke="white"/>
<path d="M267.665 101.147C268.147 101.713 268.317 102.406 268.173 103.227C268.03 104.049 267.664 104.495 267.074 104.566L260.323 105.376C259.733 105.447 259.28 105.099 258.965 104.332C258.649 103.567 258.665 102.851 259.013 102.186L261.872 96.7224C261.982 96.5123 262.109 96.3494 262.251 96.2339C262.393 96.1183 262.552 96.05 262.727 96.0291C262.902 96.0081 263.071 96.037 263.234 96.1158C263.398 96.1947 263.556 96.3234 263.708 96.5021L267.665 101.147Z" fill="#6E3DC1"/>
<rect x="15" y="52" width="163" height="68" rx="34" stroke="#6E3DC1" stroke-width="2"/>
<path d="M62.2492 93L58.6697 79.9091H60.2805L63.0162 90.571H63.1441L65.931 79.9091H67.7208L70.5077 90.571H70.6356L73.3714 79.9091H74.9822L71.4026 93H69.7662L66.877 82.5682H66.7748L63.8856 93H62.2492ZM78.7279 93.2301C78.1057 93.2301 77.5411 93.1129 77.034 92.8786C76.5269 92.6399 76.1242 92.2969 75.8259 91.8494C75.5276 91.3977 75.3785 90.8523 75.3785 90.2131C75.3785 89.6506 75.4893 89.1946 75.7108 88.8452C75.9324 88.4915 76.2286 88.2145 76.5993 88.0142C76.9701 87.8139 77.3792 87.6648 77.8266 87.5668C78.2783 87.4645 78.7322 87.3835 79.1881 87.3239C79.7847 87.2472 80.2684 87.1896 80.6391 87.1513C81.0141 87.1087 81.2868 87.0384 81.4573 86.9403C81.632 86.8423 81.7194 86.6719 81.7194 86.429V86.3778C81.7194 85.7472 81.5468 85.2571 81.2016 84.9077C80.8607 84.5582 80.343 84.3835 79.6483 84.3835C78.9282 84.3835 78.3635 84.5412 77.9545 84.8565C77.5454 85.1719 77.2577 85.5085 77.0915 85.8665L75.6597 85.3551C75.9154 84.7585 76.2563 84.294 76.6824 83.9616C77.1128 83.625 77.5816 83.3906 78.0887 83.2585C78.6001 83.1222 79.1029 83.054 79.5972 83.054C79.9126 83.054 80.2748 83.0923 80.6839 83.169C81.0972 83.2415 81.4957 83.3928 81.8792 83.6229C82.267 83.853 82.5887 84.2003 82.8444 84.6648C83.1001 85.1293 83.2279 85.7514 83.2279 86.5312V93H81.7194V91.6705H81.6427C81.5404 91.8835 81.3699 92.1115 81.1313 92.3544C80.8927 92.5973 80.5752 92.804 80.1789 92.9744C79.7826 93.1449 79.2989 93.2301 78.7279 93.2301ZM78.958 91.875C79.5546 91.875 80.0574 91.7578 80.4665 91.5234C80.8799 91.2891 81.191 90.9865 81.3998 90.6158C81.6128 90.245 81.7194 89.8551 81.7194 89.446V88.0653C81.6555 88.142 81.5148 88.2124 81.2975 88.2763C81.0844 88.3359 80.8373 88.3892 80.556 88.4361C80.279 88.4787 80.0084 88.517 79.7442 88.5511C79.4843 88.581 79.2733 88.6065 79.1114 88.6278C78.7194 88.679 78.3529 88.7621 78.012 88.8771C77.6753 88.9879 77.4026 89.1562 77.1938 89.3821C76.9893 89.6037 76.887 89.9062 76.887 90.2898C76.887 90.8139 77.0809 91.2102 77.4687 91.4787C77.8607 91.7429 78.3572 91.875 78.958 91.875ZM90.2512 83.1818V84.4602H85.1631V83.1818H90.2512ZM86.646 80.8295H88.1546V90.1875C88.1546 90.6136 88.2164 90.9332 88.3399 91.1463C88.4678 91.3551 88.6297 91.4957 88.8257 91.5682C89.026 91.6364 89.2369 91.6705 89.4585 91.6705C89.6247 91.6705 89.7611 91.6619 89.8676 91.6449C89.9742 91.6236 90.0594 91.6065 90.1233 91.5938L90.4301 92.9489C90.3279 92.9872 90.1851 93.0256 90.0019 93.0639C89.8186 93.1065 89.5864 93.1278 89.3051 93.1278C88.879 93.1278 88.4614 93.0362 88.0523 92.853C87.6475 92.6697 87.3108 92.3906 87.0423 92.0156C86.7781 91.6406 86.646 91.1676 86.646 90.5966V80.8295ZM96.5313 93.2045C95.5853 93.2045 94.7693 92.9957 94.0832 92.5781C93.4014 92.1562 92.8751 91.5682 92.5044 90.8139C92.1379 90.0554 91.9546 89.1733 91.9546 88.1676C91.9546 87.1619 92.1379 86.2756 92.5044 85.5085C92.8751 84.7372 93.3907 84.1364 94.0512 83.706C94.716 83.2713 95.4916 83.054 96.3779 83.054C96.8893 83.054 97.3943 83.1392 97.8928 83.3097C98.3914 83.4801 98.8453 83.7571 99.2544 84.1406C99.6634 84.5199 99.9894 85.0227 100.232 85.6491C100.475 86.2756 100.597 87.0469 100.597 87.9631V88.6023H93.0285V87.2983H99.0626C99.0626 86.7443 98.9518 86.25 98.7302 85.8153C98.5129 85.3807 98.2018 85.0376 97.797 84.7862C97.3964 84.5348 96.9234 84.4091 96.3779 84.4091C95.7771 84.4091 95.2572 84.5582 94.8183 84.8565C94.3836 85.1506 94.0491 85.5341 93.8147 86.0071C93.5803 86.4801 93.4632 86.9872 93.4632 87.5284V88.3977C93.4632 89.1392 93.591 89.7678 93.8467 90.2834C94.1066 90.7947 94.4667 91.1847 94.9269 91.4531C95.3872 91.7173 95.922 91.8494 96.5313 91.8494C96.9276 91.8494 97.2856 91.794 97.6052 91.6832C97.9291 91.5682 98.2082 91.3977 98.4426 91.1719C98.6769 90.9418 98.858 90.6562 98.9859 90.3153L100.443 90.7244C100.29 91.2188 100.032 91.6534 99.6698 92.0284C99.3076 92.3991 98.8602 92.6889 98.3275 92.8977C97.7948 93.1023 97.1961 93.2045 96.5313 93.2045ZM102.891 93V83.1818H104.349V84.6648H104.451C104.63 84.179 104.954 83.7848 105.423 83.4822C105.891 83.1797 106.42 83.0284 107.008 83.0284C107.119 83.0284 107.257 83.0305 107.423 83.0348C107.59 83.0391 107.715 83.0455 107.801 83.054V84.5881C107.749 84.5753 107.632 84.5561 107.449 84.5305C107.27 84.5007 107.08 84.4858 106.88 84.4858C106.403 84.4858 105.977 84.5859 105.602 84.7862C105.231 84.9822 104.937 85.255 104.72 85.6044C104.506 85.9496 104.4 86.3437 104.4 86.7869V93H102.891ZM114.576 83.1818V84.4602H109.283V83.1818H114.576ZM110.869 93V81.8267C110.869 81.2642 111.001 80.7955 111.265 80.4205C111.529 80.0455 111.872 79.7642 112.294 79.5767C112.716 79.3892 113.161 79.2955 113.63 79.2955C114.001 79.2955 114.303 79.3253 114.538 79.3849C114.772 79.4446 114.947 79.5 115.062 79.5511L114.627 80.8551C114.551 80.8295 114.444 80.7976 114.308 80.7592C114.176 80.7209 114.001 80.7017 113.783 80.7017C113.285 80.7017 112.925 80.8274 112.703 81.0788C112.486 81.3303 112.377 81.6989 112.377 82.1847V93H110.869ZM119.298 93.2301C118.676 93.2301 118.111 93.1129 117.604 92.8786C117.097 92.6399 116.695 92.2969 116.396 91.8494C116.098 91.3977 115.949 90.8523 115.949 90.2131C115.949 89.6506 116.06 89.1946 116.281 88.8452C116.503 88.4915 116.799 88.2145 117.17 88.0142C117.54 87.8139 117.949 87.6648 118.397 87.5668C118.849 87.4645 119.302 87.3835 119.758 87.3239C120.355 87.2472 120.839 87.1896 121.209 87.1513C121.584 87.1087 121.857 87.0384 122.028 86.9403C122.202 86.8423 122.29 86.6719 122.29 86.429V86.3778C122.29 85.7472 122.117 85.2571 121.772 84.9077C121.431 84.5582 120.913 84.3835 120.219 84.3835C119.498 84.3835 118.934 84.5412 118.525 84.8565C118.116 85.1719 117.828 85.5085 117.662 85.8665L116.23 85.3551C116.486 84.7585 116.827 84.294 117.253 83.9616C117.683 83.625 118.152 83.3906 118.659 83.2585C119.17 83.1222 119.673 83.054 120.168 83.054C120.483 83.054 120.845 83.0923 121.254 83.169C121.668 83.2415 122.066 83.3928 122.449 83.6229C122.837 83.853 123.159 84.2003 123.415 84.6648C123.67 85.1293 123.798 85.7514 123.798 86.5312V93H122.29V91.6705H122.213C122.111 91.8835 121.94 92.1115 121.702 92.3544C121.463 92.5973 121.146 92.804 120.749 92.9744C120.353 93.1449 119.869 93.2301 119.298 93.2301ZM119.528 91.875C120.125 91.875 120.628 91.7578 121.037 91.5234C121.45 91.2891 121.761 90.9865 121.97 90.6158C122.183 90.245 122.29 89.8551 122.29 89.446V88.0653C122.226 88.142 122.085 88.2124 121.868 88.2763C121.655 88.3359 121.408 88.3892 121.126 88.4361C120.849 88.4787 120.579 88.517 120.315 88.5511C120.055 88.581 119.844 88.6065 119.682 88.6278C119.29 88.679 118.923 88.7621 118.582 88.8771C118.246 88.9879 117.973 89.1562 117.764 89.3821C117.56 89.6037 117.457 89.9062 117.457 90.2898C117.457 90.8139 117.651 91.2102 118.039 91.4787C118.431 91.7429 118.927 91.875 119.528 91.875ZM128.06 79.9091V93H126.552V79.9091H128.06ZM132.332 79.9091V93H130.823V79.9091H132.332Z" fill="black"/>
<path d="M212.147 93V79.9091H216.57C217.593 79.9091 218.432 80.0838 219.089 80.4332C219.745 80.7784 220.231 81.2536 220.546 81.8587C220.861 82.4638 221.019 83.152 221.019 83.9233C221.019 84.6946 220.861 85.3786 220.546 85.9751C220.231 86.5717 219.747 87.0405 219.095 87.3814C218.443 87.718 217.61 87.8864 216.596 87.8864H213.016V86.4545H216.544C217.243 86.4545 217.806 86.3523 218.232 86.1477C218.662 85.9432 218.973 85.6534 219.165 85.2784C219.361 84.8991 219.459 84.4474 219.459 83.9233C219.459 83.3991 219.361 82.9411 219.165 82.549C218.969 82.157 218.656 81.8544 218.226 81.6413C217.795 81.424 217.226 81.3153 216.519 81.3153H213.732V93H212.147ZM218.309 87.1193L221.53 93H219.689L216.519 87.1193H218.309ZM227.467 93.2045C226.521 93.2045 225.705 92.9957 225.019 92.5781C224.337 92.1562 223.811 91.5682 223.44 90.8139C223.073 90.0554 222.89 89.1733 222.89 88.1676C222.89 87.1619 223.073 86.2756 223.44 85.5085C223.811 84.7372 224.326 84.1364 224.987 83.706C225.652 83.2713 226.427 83.054 227.313 83.054C227.825 83.054 228.33 83.1392 228.828 83.3097C229.327 83.4801 229.781 83.7571 230.19 84.1406C230.599 84.5199 230.925 85.0227 231.168 85.6491C231.411 86.2756 231.532 87.0469 231.532 87.9631V88.6023H223.964V87.2983H229.998C229.998 86.7443 229.887 86.25 229.666 85.8153C229.448 85.3807 229.137 85.0376 228.733 84.7862C228.332 84.5348 227.859 84.4091 227.313 84.4091C226.713 84.4091 226.193 84.5582 225.754 84.8565C225.319 85.1506 224.985 85.5341 224.75 86.0071C224.516 86.4801 224.399 86.9872 224.399 87.5284V88.3977C224.399 89.1392 224.527 89.7678 224.782 90.2834C225.042 90.7947 225.402 91.1847 225.862 91.4531C226.323 91.7173 226.858 91.8494 227.467 91.8494C227.863 91.8494 228.221 91.794 228.541 91.6832C228.865 91.5682 229.144 91.3977 229.378 91.1719C229.612 90.9418 229.794 90.6562 229.921 90.3153L231.379 90.7244C231.225 91.2188 230.968 91.6534 230.605 92.0284C230.243 92.3991 229.796 92.6889 229.263 92.8977C228.73 93.1023 228.132 93.2045 227.467 93.2045ZM240.526 96.6818V91.4915H240.398C240.287 91.6705 240.13 91.8963 239.925 92.169C239.72 92.4375 239.429 92.6783 239.049 92.8913C238.67 93.1001 238.165 93.2045 237.534 93.2045C236.716 93.2045 235.994 92.9979 235.367 92.5845C234.741 92.1669 234.251 91.5788 233.897 90.8203C233.544 90.0575 233.367 89.1562 233.367 88.1165C233.367 87.0852 233.544 86.1903 233.897 85.4318C234.251 84.6733 234.743 84.0874 235.374 83.674C236.005 83.2607 236.733 83.054 237.56 83.054C238.199 83.054 238.704 83.1605 239.075 83.3736C239.45 83.5824 239.735 83.821 239.931 84.0895C240.132 84.3537 240.287 84.571 240.398 84.7415H240.577V83.1818H242.034V96.6818H240.526ZM237.739 91.8494C238.344 91.8494 238.855 91.6918 239.273 91.3764C239.691 91.0568 240.008 90.6158 240.225 90.0533C240.443 89.4865 240.551 88.8324 240.551 88.0909C240.551 87.358 240.445 86.7166 240.232 86.1669C240.019 85.6129 239.703 85.1825 239.286 84.8757C238.868 84.5646 238.353 84.4091 237.739 84.4091C237.1 84.4091 236.567 84.5732 236.141 84.9013C235.719 85.2251 235.402 85.6662 235.188 86.2244C234.98 86.7784 234.875 87.4006 234.875 88.0909C234.875 88.7898 234.982 89.4247 235.195 89.9957C235.412 90.5625 235.732 91.0142 236.154 91.3509C236.58 91.6832 237.108 91.8494 237.739 91.8494ZM250.983 88.9858V83.1818H252.492V93H250.983V91.3381H250.881C250.651 91.8366 250.293 92.2607 249.807 92.6101C249.321 92.9553 248.708 93.1278 247.966 93.1278C247.353 93.1278 246.807 92.9936 246.33 92.7251C245.853 92.4524 245.478 92.0433 245.205 91.4979C244.932 90.9482 244.796 90.2557 244.796 89.4205V83.1818H246.304V89.3182C246.304 90.0341 246.505 90.6051 246.905 91.0312C247.31 91.4574 247.826 91.6705 248.452 91.6705C248.827 91.6705 249.208 91.5746 249.596 91.3828C249.988 91.1911 250.316 90.897 250.581 90.5007C250.849 90.1044 250.983 89.5994 250.983 88.9858ZM255.255 93V83.1818H256.763V93H255.255ZM256.022 81.5455C255.728 81.5455 255.474 81.4453 255.261 81.245C255.052 81.0447 254.948 80.804 254.948 80.5227C254.948 80.2415 255.052 80.0007 255.261 79.8004C255.474 79.6001 255.728 79.5 256.022 79.5C256.316 79.5 256.567 79.6001 256.776 79.8004C256.989 80.0007 257.096 80.2415 257.096 80.5227C257.096 80.804 256.989 81.0447 256.776 81.245C256.567 81.4453 256.316 81.5455 256.022 81.5455ZM259.526 93V83.1818H260.984V84.6648H261.086C261.265 84.179 261.589 83.7848 262.057 83.4822C262.526 83.1797 263.055 83.0284 263.643 83.0284C263.753 83.0284 263.892 83.0305 264.058 83.0348C264.224 83.0391 264.35 83.0455 264.435 83.054V84.5881C264.384 84.5753 264.267 84.5561 264.084 84.5305C263.905 84.5007 263.715 84.4858 263.515 84.4858C263.038 84.4858 262.611 84.5859 262.236 84.7862C261.866 84.9822 261.572 85.255 261.354 85.6044C261.141 85.9496 261.035 86.3437 261.035 86.7869V93H259.526ZM270.041 93.2045C269.095 93.2045 268.279 92.9957 267.593 92.5781C266.911 92.1562 266.385 91.5682 266.014 90.8139C265.648 90.0554 265.464 89.1733 265.464 88.1676C265.464 87.1619 265.648 86.2756 266.014 85.5085C266.385 84.7372 266.9 84.1364 267.561 83.706C268.226 83.2713 269.001 83.054 269.888 83.054C270.399 83.054 270.904 83.1392 271.403 83.3097C271.901 83.4801 272.355 83.7571 272.764 84.1406C273.173 84.5199 273.499 85.0227 273.742 85.6491C273.985 86.2756 274.106 87.0469 274.106 87.9631V88.6023H266.538V87.2983H272.572C272.572 86.7443 272.462 86.25 272.24 85.8153C272.023 85.3807 271.712 85.0376 271.307 84.7862C270.906 84.5348 270.433 84.4091 269.888 84.4091C269.287 84.4091 268.767 84.5582 268.328 84.8565C267.893 85.1506 267.559 85.5341 267.324 86.0071C267.09 86.4801 266.973 86.9872 266.973 87.5284V88.3977C266.973 89.1392 267.101 89.7678 267.356 90.2834C267.616 90.7947 267.976 91.1847 268.437 91.4531C268.897 91.7173 269.432 91.8494 270.041 91.8494C270.437 91.8494 270.795 91.794 271.115 91.6832C271.439 91.5682 271.718 91.3977 271.952 91.1719C272.187 90.9418 272.368 90.6562 272.496 90.3153L273.953 90.7244C273.8 91.2188 273.542 91.6534 273.18 92.0284C272.817 92.3991 272.37 92.6889 271.837 92.8977C271.305 93.1023 270.706 93.2045 270.041 93.2045ZM276.401 93V83.1818H277.859V84.7159H277.986C278.191 84.1918 278.521 83.7848 278.977 83.495C279.433 83.201 279.981 83.054 280.62 83.054C281.268 83.054 281.807 83.201 282.237 83.495C282.672 83.7848 283.011 84.1918 283.253 84.7159H283.356C283.607 84.2088 283.984 83.8061 284.487 83.5078C284.99 83.2053 285.593 83.054 286.296 83.054C287.174 83.054 287.892 83.3288 288.45 83.8786C289.008 84.424 289.288 85.2741 289.288 86.429V93H287.779V86.429C287.779 85.7045 287.581 85.1868 287.185 84.8757C286.788 84.5646 286.322 84.4091 285.785 84.4091C285.094 84.4091 284.56 84.6179 284.18 85.0355C283.801 85.4489 283.611 85.973 283.611 86.608V93H282.077V86.2756C282.077 85.7173 281.896 85.2678 281.534 84.9268C281.172 84.5817 280.705 84.4091 280.134 84.4091C279.742 84.4091 279.376 84.5135 279.035 84.7223C278.698 84.9311 278.425 85.2209 278.217 85.5916C278.012 85.9581 277.91 86.3821 277.91 86.8636V93H276.401ZM296.162 93.2045C295.216 93.2045 294.4 92.9957 293.714 92.5781C293.032 92.1562 292.506 91.5682 292.135 90.8139C291.769 90.0554 291.585 89.1733 291.585 88.1676C291.585 87.1619 291.769 86.2756 292.135 85.5085C292.506 84.7372 293.022 84.1364 293.682 83.706C294.347 83.2713 295.122 83.054 296.009 83.054C296.52 83.054 297.025 83.1392 297.524 83.3097C298.022 83.4801 298.476 83.7571 298.885 84.1406C299.294 84.5199 299.62 85.0227 299.863 85.6491C300.106 86.2756 300.228 87.0469 300.228 87.9631V88.6023H292.659V87.2983H298.693C298.693 86.7443 298.583 86.25 298.361 85.8153C298.144 85.3807 297.833 85.0376 297.428 84.7862C297.027 84.5348 296.554 84.4091 296.009 84.4091C295.408 84.4091 294.888 84.5582 294.449 84.8565C294.014 85.1506 293.68 85.5341 293.446 86.0071C293.211 86.4801 293.094 86.9872 293.094 87.5284V88.3977C293.094 89.1392 293.222 89.7678 293.478 90.2834C293.737 90.7947 294.098 91.1847 294.558 91.4531C295.018 91.7173 295.553 91.8494 296.162 91.8494C296.559 91.8494 296.916 91.794 297.236 91.6832C297.56 91.5682 297.839 91.3977 298.073 91.1719C298.308 90.9418 298.489 90.6562 298.617 90.3153L300.074 90.7244C299.921 91.2188 299.663 91.6534 299.301 92.0284C298.938 92.3991 298.491 92.6889 297.958 92.8977C297.426 93.1023 296.827 93.2045 296.162 93.2045ZM304.031 87.0938V93H302.522V83.1818H303.98V84.7159H304.108C304.338 84.2173 304.687 83.8168 305.156 83.5142C305.625 83.2074 306.23 83.054 306.971 83.054C307.636 83.054 308.218 83.1903 308.716 83.4631C309.215 83.7315 309.603 84.1406 309.88 84.6903C310.157 85.2358 310.295 85.9261 310.295 86.7614V93H308.786V86.8636C308.786 86.0923 308.586 85.4915 308.186 85.0611C307.785 84.6264 307.235 84.4091 306.536 84.4091C306.055 84.4091 305.625 84.5135 305.245 84.7223C304.87 84.9311 304.574 85.2358 304.357 85.6364C304.139 86.0369 304.031 86.5227 304.031 87.0938ZM317.321 83.1818V84.4602H312.233V83.1818H317.321ZM313.716 80.8295H315.225V90.1875C315.225 90.6136 315.287 90.9332 315.41 91.1463C315.538 91.3551 315.7 91.4957 315.896 91.5682C316.096 91.6364 316.307 91.6705 316.529 91.6705C316.695 91.6705 316.831 91.6619 316.938 91.6449C317.044 91.6236 317.13 91.6065 317.194 91.5938L317.5 92.9489C317.398 92.9872 317.255 93.0256 317.072 93.0639C316.889 93.1065 316.657 93.1278 316.375 93.1278C315.949 93.1278 315.532 93.0362 315.123 92.853C314.718 92.6697 314.381 92.3906 314.113 92.0156C313.848 91.6406 313.716 91.1676 313.716 90.5966V80.8295ZM326.369 85.3807L325.014 85.7642C324.929 85.5384 324.803 85.3189 324.637 85.1058C324.475 84.8885 324.254 84.7095 323.972 84.5689C323.691 84.4283 323.331 84.358 322.892 84.358C322.291 84.358 321.791 84.4964 321.39 84.7734C320.994 85.0462 320.796 85.3935 320.796 85.8153C320.796 86.1903 320.932 86.4865 321.205 86.7038C321.477 86.9212 321.903 87.1023 322.483 87.2472L323.94 87.6051C324.818 87.8182 325.472 88.1442 325.903 88.5831C326.333 89.0178 326.548 89.5781 326.548 90.2642C326.548 90.8267 326.386 91.3295 326.063 91.7727C325.743 92.2159 325.296 92.5653 324.72 92.821C324.145 93.0767 323.476 93.2045 322.713 93.2045C321.712 93.2045 320.883 92.9872 320.227 92.5526C319.57 92.1179 319.155 91.483 318.98 90.6477L320.412 90.2898C320.548 90.8182 320.806 91.2145 321.185 91.4787C321.569 91.7429 322.07 91.875 322.688 91.875C323.391 91.875 323.949 91.7259 324.362 91.4276C324.78 91.125 324.989 90.7628 324.989 90.3409C324.989 90 324.869 89.7145 324.631 89.4844C324.392 89.25 324.026 89.0753 323.531 88.9602L321.895 88.5767C320.996 88.3636 320.335 88.0334 319.913 87.5859C319.496 87.1342 319.287 86.5696 319.287 85.892C319.287 85.3381 319.443 84.848 319.754 84.4219C320.069 83.9957 320.497 83.6612 321.038 83.4183C321.584 83.1754 322.202 83.054 322.892 83.054C323.864 83.054 324.627 83.267 325.18 83.6932C325.739 84.1193 326.135 84.6818 326.369 85.3807Z" fill="black"/>
<line x1="334" y1="85" x2="359" y2="85" stroke="#6E3DC1" stroke-width="2"/>
<path d="M373.751 93V79.9091H378.175C379.202 79.9091 380.041 80.0945 380.693 80.4652C381.349 80.8317 381.835 81.3281 382.15 81.9545C382.466 82.581 382.623 83.2798 382.623 84.0511C382.623 84.8224 382.466 85.5234 382.15 86.1541C381.839 86.7848 381.358 87.2876 380.706 87.6626C380.054 88.0334 379.219 88.2188 378.2 88.2188H375.03V86.8125H378.149C378.852 86.8125 379.417 86.6911 379.843 86.4482C380.269 86.2053 380.578 85.8771 380.77 85.4638C380.966 85.0462 381.064 84.5753 381.064 84.0511C381.064 83.527 380.966 83.0582 380.77 82.6449C380.578 82.2315 380.267 81.9077 379.836 81.6733C379.406 81.4347 378.835 81.3153 378.123 81.3153H375.336V93H373.751ZM386.481 79.9091V93H384.972V79.9091H386.481ZM392.133 93.2301C391.511 93.2301 390.946 93.1129 390.439 92.8786C389.932 92.6399 389.529 92.2969 389.231 91.8494C388.933 91.3977 388.784 90.8523 388.784 90.2131C388.784 89.6506 388.895 89.1946 389.116 88.8452C389.338 88.4915 389.634 88.2145 390.005 88.0142C390.375 87.8139 390.784 87.6648 391.232 87.5668C391.684 87.4645 392.137 87.3835 392.593 87.3239C393.19 87.2472 393.674 87.1896 394.044 87.1513C394.419 87.1087 394.692 87.0384 394.863 86.9403C395.037 86.8423 395.125 86.6719 395.125 86.429V86.3778C395.125 85.7472 394.952 85.2571 394.607 84.9077C394.266 84.5582 393.748 84.3835 393.054 84.3835C392.333 84.3835 391.769 84.5412 391.36 84.8565C390.951 85.1719 390.663 85.5085 390.497 85.8665L389.065 85.3551C389.321 84.7585 389.662 84.294 390.088 83.9616C390.518 83.625 390.987 83.3906 391.494 83.2585C392.005 83.1222 392.508 83.054 393.002 83.054C393.318 83.054 393.68 83.0923 394.089 83.169C394.502 83.2415 394.901 83.3928 395.284 83.6229C395.672 83.853 395.994 84.2003 396.25 84.6648C396.505 85.1293 396.633 85.7514 396.633 86.5312V93H395.125V91.6705H395.048C394.946 91.8835 394.775 92.1115 394.537 92.3544C394.298 92.5973 393.98 92.804 393.584 92.9744C393.188 93.1449 392.704 93.2301 392.133 93.2301ZM392.363 91.875C392.96 91.875 393.463 91.7578 393.872 91.5234C394.285 91.2891 394.596 90.9865 394.805 90.6158C395.018 90.245 395.125 89.8551 395.125 89.446V88.0653C395.061 88.142 394.92 88.2124 394.703 88.2763C394.49 88.3359 394.243 88.3892 393.961 88.4361C393.684 88.4787 393.414 88.517 393.15 88.5511C392.89 88.581 392.679 88.6065 392.517 88.6278C392.125 88.679 391.758 88.7621 391.417 88.8771C391.081 88.9879 390.808 89.1562 390.599 89.3821C390.395 89.6037 390.292 89.9062 390.292 90.2898C390.292 90.8139 390.486 91.2102 390.874 91.4787C391.266 91.7429 391.762 91.875 392.363 91.875ZM400.895 87.0938V93H399.387V83.1818H400.844V84.7159H400.972C401.202 84.2173 401.551 83.8168 402.02 83.5142C402.489 83.2074 403.094 83.054 403.835 83.054C404.5 83.054 405.082 83.1903 405.58 83.4631C406.079 83.7315 406.467 84.1406 406.744 84.6903C407.021 85.2358 407.159 85.9261 407.159 86.7614V93H405.651V86.8636C405.651 86.0923 405.45 85.4915 405.05 85.0611C404.649 84.6264 404.1 84.4091 403.401 84.4091C402.919 84.4091 402.489 84.5135 402.11 84.7223C401.735 84.9311 401.438 85.2358 401.221 85.6364C401.004 86.0369 400.895 86.5227 400.895 87.0938ZM411.424 87.0938V93H409.916V83.1818H411.373V84.7159H411.501C411.731 84.2173 412.081 83.8168 412.549 83.5142C413.018 83.2074 413.623 83.054 414.365 83.054C415.029 83.054 415.611 83.1903 416.11 83.4631C416.608 83.7315 416.996 84.1406 417.273 84.6903C417.55 85.2358 417.689 85.9261 417.689 86.7614V93H416.18V86.8636C416.18 86.0923 415.98 85.4915 415.579 85.0611C415.179 84.6264 414.629 84.4091 413.93 84.4091C413.449 84.4091 413.018 84.5135 412.639 84.7223C412.264 84.9311 411.968 85.2358 411.75 85.6364C411.533 86.0369 411.424 86.5227 411.424 87.0938ZM420.445 93V83.1818H421.954V93H420.445ZM421.212 81.5455C420.918 81.5455 420.665 81.4453 420.452 81.245C420.243 81.0447 420.138 80.804 420.138 80.5227C420.138 80.2415 420.243 80.0007 420.452 79.8004C420.665 79.6001 420.918 79.5 421.212 79.5C421.506 79.5 421.758 79.6001 421.966 79.8004C422.18 80.0007 422.286 80.2415 422.286 80.5227C422.286 80.804 422.18 81.0447 421.966 81.245C421.758 81.4453 421.506 81.5455 421.212 81.5455ZM426.225 87.0938V93H424.717V83.1818H426.174V84.7159H426.302C426.532 84.2173 426.881 83.8168 427.35 83.5142C427.819 83.2074 428.424 83.054 429.165 83.054C429.83 83.054 430.412 83.1903 430.911 83.4631C431.409 83.7315 431.797 84.1406 432.074 84.6903C432.351 85.2358 432.489 85.9261 432.489 86.7614V93H430.981V86.8636C430.981 86.0923 430.781 85.4915 430.38 85.0611C429.979 84.6264 429.43 84.4091 428.731 84.4091C428.249 84.4091 427.819 84.5135 427.44 84.7223C427.065 84.9311 426.768 85.2358 426.551 85.6364C426.334 86.0369 426.225 86.5227 426.225 87.0938ZM439.209 96.8864C438.48 96.8864 437.854 96.7926 437.33 96.6051C436.806 96.4219 436.369 96.179 436.019 95.8764C435.674 95.5781 435.399 95.2585 435.195 94.9176L436.396 94.0739C436.533 94.2528 436.705 94.4574 436.914 94.6875C437.123 94.9219 437.409 95.1243 437.771 95.2947C438.137 95.4695 438.617 95.5568 439.209 95.5568C440.002 95.5568 440.656 95.3651 441.171 94.9815C441.687 94.598 441.945 93.9972 441.945 93.179V91.1847H441.817C441.706 91.3636 441.548 91.5852 441.344 91.8494C441.144 92.1094 440.854 92.3416 440.475 92.5462C440.1 92.7464 439.593 92.8466 438.953 92.8466C438.161 92.8466 437.449 92.6591 436.818 92.2841C436.192 91.9091 435.695 91.3636 435.329 90.6477C434.967 89.9318 434.786 89.0625 434.786 88.0398C434.786 87.0341 434.963 86.1584 435.316 85.4126C435.67 84.6626 436.162 84.0831 436.793 83.674C437.423 83.2607 438.152 83.054 438.979 83.054C439.618 83.054 440.125 83.1605 440.5 83.3736C440.879 83.5824 441.169 83.821 441.369 84.0895C441.574 84.3537 441.732 84.571 441.843 84.7415H441.996V83.1818H443.453V93.2812C443.453 94.125 443.262 94.8111 442.878 95.3395C442.499 95.8722 441.987 96.2621 441.344 96.5092C440.705 96.7607 439.993 96.8864 439.209 96.8864ZM439.158 91.4915C439.763 91.4915 440.274 91.353 440.692 91.076C441.11 90.799 441.427 90.4006 441.644 89.8807C441.862 89.3608 441.97 88.7386 441.97 88.0142C441.97 87.3068 441.864 86.6825 441.651 86.1413C441.438 85.6001 441.122 85.1761 440.705 84.8693C440.287 84.5625 439.771 84.4091 439.158 84.4091C438.519 84.4091 437.986 84.571 437.56 84.8949C437.138 85.2187 436.82 85.6534 436.607 86.1989C436.399 86.7443 436.294 87.3494 436.294 88.0142C436.294 88.696 436.401 89.299 436.614 89.8232C436.831 90.343 437.151 90.7521 437.573 91.0504C437.999 91.3445 438.527 91.4915 439.158 91.4915Z" fill="black"/>
<path d="M491.402 79.9091V93H489.817V79.9091H491.402ZM494.376 93V83.1818H495.833V84.7159H495.961C496.166 84.1918 496.496 83.7848 496.952 83.495C497.408 83.201 497.955 83.054 498.595 83.054C499.242 83.054 499.781 83.201 500.212 83.495C500.646 83.7848 500.985 84.1918 501.228 84.7159H501.33C501.582 84.2088 501.959 83.8061 502.462 83.5078C502.965 83.2053 503.568 83.054 504.271 83.054C505.149 83.054 505.867 83.3288 506.425 83.8786C506.983 84.424 507.262 85.2741 507.262 86.429V93H505.754V86.429C505.754 85.7045 505.555 85.1868 505.159 84.8757C504.763 84.5646 504.296 84.4091 503.759 84.4091C503.069 84.4091 502.534 84.6179 502.155 85.0355C501.776 85.4489 501.586 85.973 501.586 86.608V93H500.052V86.2756C500.052 85.7173 499.871 85.2678 499.509 84.9268C499.146 84.5817 498.68 84.4091 498.109 84.4091C497.717 84.4091 497.35 84.5135 497.009 84.7223C496.673 84.9311 496.4 85.2209 496.191 85.5916C495.987 85.9581 495.884 86.3821 495.884 86.8636V93H494.376ZM510.02 96.6818V83.1818H511.478V84.7415H511.657C511.767 84.571 511.921 84.3537 512.117 84.0895C512.317 83.821 512.603 83.5824 512.973 83.3736C513.348 83.1605 513.856 83.054 514.495 83.054C515.321 83.054 516.05 83.2607 516.681 83.674C517.312 84.0874 517.804 84.6733 518.157 85.4318C518.511 86.1903 518.688 87.0852 518.688 88.1165C518.688 89.1562 518.511 90.0575 518.157 90.8203C517.804 91.5788 517.314 92.1669 516.687 92.5845C516.061 92.9979 515.339 93.2045 514.52 93.2045C513.89 93.2045 513.385 93.1001 513.005 92.8913C512.626 92.6783 512.334 92.4375 512.13 92.169C511.925 91.8963 511.767 91.6705 511.657 91.4915H511.529V96.6818H510.02ZM511.503 88.0909C511.503 88.8324 511.612 89.4865 511.829 90.0533C512.047 90.6158 512.364 91.0568 512.782 91.3764C513.199 91.6918 513.711 91.8494 514.316 91.8494C514.946 91.8494 515.473 91.6832 515.895 91.3509C516.321 91.0142 516.64 90.5625 516.853 89.9957C517.071 89.4247 517.179 88.7898 517.179 88.0909C517.179 87.4006 517.073 86.7784 516.86 86.2244C516.651 85.6662 516.334 85.2251 515.907 84.9013C515.486 84.5732 514.955 84.4091 514.316 84.4091C513.702 84.4091 513.187 84.5646 512.769 84.8757C512.351 85.1825 512.036 85.6129 511.823 86.1669C511.61 86.7166 511.503 87.358 511.503 88.0909ZM522.498 79.9091V93H520.989V79.9091H522.498ZM529.377 93.2045C528.431 93.2045 527.615 92.9957 526.929 92.5781C526.247 92.1562 525.721 91.5682 525.35 90.8139C524.984 90.0554 524.8 89.1733 524.8 88.1676C524.8 87.1619 524.984 86.2756 525.35 85.5085C525.721 84.7372 526.236 84.1364 526.897 83.706C527.562 83.2713 528.337 83.054 529.224 83.054C529.735 83.054 530.24 83.1392 530.739 83.3097C531.237 83.4801 531.691 83.7571 532.1 84.1406C532.509 84.5199 532.835 85.0227 533.078 85.6491C533.321 86.2756 533.442 87.0469 533.442 87.9631V88.6023H525.874V87.2983H531.908C531.908 86.7443 531.797 86.25 531.576 85.8153C531.359 85.3807 531.047 85.0376 530.643 84.7862C530.242 84.5348 529.769 84.4091 529.224 84.4091C528.623 84.4091 528.103 84.5582 527.664 84.8565C527.229 85.1506 526.895 85.5341 526.66 86.0071C526.426 86.4801 526.309 86.9872 526.309 87.5284V88.3977C526.309 89.1392 526.437 89.7678 526.692 90.2834C526.952 90.7947 527.312 91.1847 527.773 91.4531C528.233 91.7173 528.768 91.8494 529.377 91.8494C529.773 91.8494 530.131 91.794 530.451 91.6832C530.775 91.5682 531.054 91.3977 531.288 91.1719C531.523 90.9418 531.704 90.6562 531.832 90.3153L533.289 90.7244C533.136 91.2188 532.878 91.6534 532.516 92.0284C532.153 92.3991 531.706 92.6889 531.173 92.8977C530.641 93.1023 530.042 93.2045 529.377 93.2045ZM535.737 93V83.1818H537.195V84.7159H537.322C537.527 84.1918 537.857 83.7848 538.313 83.495C538.769 83.201 539.317 83.054 539.956 83.054C540.604 83.054 541.143 83.201 541.573 83.495C542.008 83.7848 542.347 84.1918 542.589 84.7159H542.692C542.943 84.2088 543.32 83.8061 543.823 83.5078C544.326 83.2053 544.929 83.054 545.632 83.054C546.51 83.054 547.228 83.3288 547.786 83.8786C548.344 84.424 548.623 85.2741 548.623 86.429V93H547.115V86.429C547.115 85.7045 546.917 85.1868 546.521 84.8757C546.124 84.5646 545.658 84.4091 545.121 84.4091C544.43 84.4091 543.896 84.6179 543.516 85.0355C543.137 85.4489 542.947 85.973 542.947 86.608V93H541.413V86.2756C541.413 85.7173 541.232 85.2678 540.87 84.9268C540.508 84.5817 540.041 84.4091 539.47 84.4091C539.078 84.4091 538.712 84.5135 538.371 84.7223C538.034 84.9311 537.761 85.2209 537.552 85.5916C537.348 85.9581 537.246 86.3821 537.246 86.8636V93H535.737ZM555.498 93.2045C554.552 93.2045 553.736 92.9957 553.05 92.5781C552.368 92.1562 551.842 91.5682 551.471 90.8139C551.105 90.0554 550.921 89.1733 550.921 88.1676C550.921 87.1619 551.105 86.2756 551.471 85.5085C551.842 84.7372 552.358 84.1364 553.018 83.706C553.683 83.2713 554.458 83.054 555.345 83.054C555.856 83.054 556.361 83.1392 556.86 83.3097C557.358 83.4801 557.812 83.7571 558.221 84.1406C558.63 84.5199 558.956 85.0227 559.199 85.6491C559.442 86.2756 559.563 87.0469 559.563 87.9631V88.6023H551.995V87.2983H558.029C558.029 86.7443 557.919 86.25 557.697 85.8153C557.48 85.3807 557.169 85.0376 556.764 84.7862C556.363 84.5348 555.89 84.4091 555.345 84.4091C554.744 84.4091 554.224 84.5582 553.785 84.8565C553.35 85.1506 553.016 85.5341 552.782 86.0071C552.547 86.4801 552.43 86.9872 552.43 87.5284V88.3977C552.43 89.1392 552.558 89.7678 552.813 90.2834C553.073 90.7947 553.434 91.1847 553.894 91.4531C554.354 91.7173 554.889 91.8494 555.498 91.8494C555.894 91.8494 556.252 91.794 556.572 91.6832C556.896 91.5682 557.175 91.3977 557.409 91.1719C557.644 90.9418 557.825 90.6562 557.953 90.3153L559.41 90.7244C559.257 91.2188 558.999 91.6534 558.637 92.0284C558.274 92.3991 557.827 92.6889 557.294 92.8977C556.762 93.1023 556.163 93.2045 555.498 93.2045ZM563.367 87.0938V93H561.858V83.1818H563.316V84.7159H563.443C563.674 84.2173 564.023 83.8168 564.492 83.5142C564.96 83.2074 565.566 83.054 566.307 83.054C566.972 83.054 567.554 83.1903 568.052 83.4631C568.551 83.7315 568.938 84.1406 569.215 84.6903C569.492 85.2358 569.631 85.9261 569.631 86.7614V93H568.122V86.8636C568.122 86.0923 567.922 85.4915 567.522 85.0611C567.121 84.6264 566.571 84.4091 565.872 84.4091C565.391 84.4091 564.96 84.5135 564.581 84.7223C564.206 84.9311 563.91 85.2358 563.693 85.6364C563.475 86.0369 563.367 86.5227 563.367 87.0938ZM576.657 83.1818V84.4602H571.569V83.1818H576.657ZM573.052 80.8295H574.561V90.1875C574.561 90.6136 574.623 90.9332 574.746 91.1463C574.874 91.3551 575.036 91.4957 575.232 91.5682C575.432 91.6364 575.643 91.6705 575.865 91.6705C576.031 91.6705 576.167 91.6619 576.274 91.6449C576.38 91.6236 576.466 91.6065 576.53 91.5938L576.836 92.9489C576.734 92.9872 576.591 93.0256 576.408 93.0639C576.225 93.1065 575.993 93.1278 575.711 93.1278C575.285 93.1278 574.868 93.0362 574.459 92.853C574.054 92.6697 573.717 92.3906 573.449 92.0156C573.184 91.6406 573.052 91.1676 573.052 90.5966V80.8295ZM581.816 93.2301C581.194 93.2301 580.629 93.1129 580.122 92.8786C579.615 92.6399 579.212 92.2969 578.914 91.8494C578.616 91.3977 578.466 90.8523 578.466 90.2131C578.466 89.6506 578.577 89.1946 578.799 88.8452C579.02 88.4915 579.316 88.2145 579.687 88.0142C580.058 87.8139 580.467 87.6648 580.915 87.5668C581.366 87.4645 581.82 87.3835 582.276 87.3239C582.873 87.2472 583.356 87.1896 583.727 87.1513C584.102 87.1087 584.375 87.0384 584.545 86.9403C584.72 86.8423 584.807 86.6719 584.807 86.429V86.3778C584.807 85.7472 584.635 85.2571 584.29 84.9077C583.949 84.5582 583.431 84.3835 582.736 84.3835C582.016 84.3835 581.451 84.5412 581.042 84.8565C580.633 85.1719 580.346 85.5085 580.179 85.8665L578.748 85.3551C579.003 84.7585 579.344 84.294 579.77 83.9616C580.201 83.625 580.669 83.3906 581.177 83.2585C581.688 83.1222 582.191 83.054 582.685 83.054C583 83.054 583.363 83.0923 583.772 83.169C584.185 83.2415 584.584 83.3928 584.967 83.6229C585.355 83.853 585.677 84.2003 585.932 84.6648C586.188 85.1293 586.316 85.7514 586.316 86.5312V93H584.807V91.6705H584.731C584.628 91.8835 584.458 92.1115 584.219 92.3544C583.981 92.5973 583.663 92.804 583.267 92.9744C582.87 93.1449 582.387 93.2301 581.816 93.2301ZM582.046 91.875C582.642 91.875 583.145 91.7578 583.554 91.5234C583.968 91.2891 584.279 90.9865 584.488 90.6158C584.701 90.245 584.807 89.8551 584.807 89.446V88.0653C584.743 88.142 584.603 88.2124 584.385 88.2763C584.172 88.3359 583.925 88.3892 583.644 88.4361C583.367 88.4787 583.096 88.517 582.832 88.5511C582.572 88.581 582.361 88.6065 582.199 88.6278C581.807 88.679 581.441 88.7621 581.1 88.8771C580.763 88.9879 580.491 89.1562 580.282 89.3821C580.077 89.6037 579.975 89.9062 579.975 90.2898C579.975 90.8139 580.169 91.2102 580.557 91.4787C580.949 91.7429 581.445 91.875 582.046 91.875ZM593.339 83.1818V84.4602H588.251V83.1818H593.339ZM589.734 80.8295H591.242V90.1875C591.242 90.6136 591.304 90.9332 591.428 91.1463C591.556 91.3551 591.718 91.4957 591.914 91.5682C592.114 91.6364 592.325 91.6705 592.546 91.6705C592.713 91.6705 592.849 91.6619 592.956 91.6449C593.062 91.6236 593.147 91.6065 593.211 91.5938L593.518 92.9489C593.416 92.9872 593.273 93.0256 593.09 93.0639C592.907 93.1065 592.674 93.1278 592.393 93.1278C591.967 93.1278 591.549 93.0362 591.14 92.853C590.735 92.6697 590.399 92.3906 590.13 92.0156C589.866 91.6406 589.734 91.1676 589.734 90.5966V80.8295ZM595.608 93V83.1818H597.117V93H595.608ZM596.375 81.5455C596.081 81.5455 595.828 81.4453 595.615 81.245C595.406 81.0447 595.301 80.804 595.301 80.5227C595.301 80.2415 595.406 80.0007 595.615 79.8004C595.828 79.6001 596.081 79.5 596.375 79.5C596.669 79.5 596.921 79.6001 597.13 79.8004C597.343 80.0007 597.449 80.2415 597.449 80.5227C597.449 80.804 597.343 81.0447 597.13 81.245C596.921 81.4453 596.669 81.5455 596.375 81.5455ZM603.868 93.2045C602.982 93.2045 602.204 92.9936 601.535 92.5717C600.87 92.1499 600.351 91.5597 599.976 90.8011C599.605 90.0426 599.419 89.1562 599.419 88.142C599.419 87.1193 599.605 86.2266 599.976 85.4638C600.351 84.701 600.87 84.1087 601.535 83.6868C602.204 83.2649 602.982 83.054 603.868 83.054C604.755 83.054 605.53 83.2649 606.195 83.6868C606.864 84.1087 607.384 84.701 607.755 85.4638C608.13 86.2266 608.317 87.1193 608.317 88.142C608.317 89.1562 608.13 90.0426 607.755 90.8011C607.384 91.5597 606.864 92.1499 606.195 92.5717C605.53 92.9936 604.755 93.2045 603.868 93.2045ZM603.868 91.8494C604.542 91.8494 605.096 91.6768 605.53 91.3317C605.965 90.9865 606.287 90.5327 606.495 89.9702C606.704 89.4077 606.809 88.7983 606.809 88.142C606.809 87.4858 606.704 86.8743 606.495 86.3075C606.287 85.7408 605.965 85.2827 605.53 84.9332C605.096 84.5838 604.542 84.4091 603.868 84.4091C603.195 84.4091 602.641 84.5838 602.206 84.9332C601.772 85.2827 601.45 85.7408 601.241 86.3075C601.032 86.8743 600.928 87.4858 600.928 88.142C600.928 88.7983 601.032 89.4077 601.241 89.9702C601.45 90.5327 601.772 90.9865 602.206 91.3317C602.641 91.6768 603.195 91.8494 603.868 91.8494ZM612.128 87.0938V93H610.62V83.1818H612.077V84.7159H612.205C612.435 84.2173 612.785 83.8168 613.253 83.5142C613.722 83.2074 614.327 83.054 615.069 83.054C615.734 83.054 616.315 83.1903 616.814 83.4631C617.312 83.7315 617.7 84.1406 617.977 84.6903C618.254 85.2358 618.393 85.9261 618.393 86.7614V93H616.884V86.8636C616.884 86.0923 616.684 85.4915 616.283 85.0611C615.883 84.6264 615.333 84.4091 614.634 84.4091C614.153 84.4091 613.722 84.5135 613.343 84.7223C612.968 84.9311 612.672 85.2358 612.454 85.6364C612.237 86.0369 612.128 86.5227 612.128 87.0938Z" fill="black"/>
<path d="M666.566 93H662.527V79.9091H666.745C668.015 79.9091 669.102 80.1712 670.005 80.6953C670.909 81.2152 671.601 81.9631 672.083 82.9389C672.564 83.9105 672.805 85.0739 672.805 86.429C672.805 87.7926 672.562 88.9666 672.076 89.951C671.591 90.9311 670.883 91.6854 669.954 92.2138C669.025 92.7379 667.896 93 666.566 93ZM664.112 91.5938H666.464C667.547 91.5938 668.444 91.3849 669.155 90.9673C669.867 90.5497 670.397 89.9553 670.747 89.1839C671.096 88.4126 671.271 87.4943 671.271 86.429C671.271 85.3722 671.098 84.4624 670.753 83.6996C670.408 82.9325 669.892 82.3445 669.206 81.9354C668.52 81.522 667.666 81.3153 666.643 81.3153H664.112V91.5938ZM679.376 93.2045C678.43 93.2045 677.614 92.9957 676.928 92.5781C676.246 92.1562 675.72 91.5682 675.349 90.8139C674.983 90.0554 674.799 89.1733 674.799 88.1676C674.799 87.1619 674.983 86.2756 675.349 85.5085C675.72 84.7372 676.235 84.1364 676.896 83.706C677.561 83.2713 678.336 83.054 679.223 83.054C679.734 83.054 680.239 83.1392 680.738 83.3097C681.236 83.4801 681.69 83.7571 682.099 84.1406C682.508 84.5199 682.834 85.0227 683.077 85.6491C683.32 86.2756 683.441 87.0469 683.441 87.9631V88.6023H675.873V87.2983H681.907C681.907 86.7443 681.797 86.25 681.575 85.8153C681.358 85.3807 681.047 85.0376 680.642 84.7862C680.241 84.5348 679.768 84.4091 679.223 84.4091C678.622 84.4091 678.102 84.5582 677.663 84.8565C677.228 85.1506 676.894 85.5341 676.659 86.0071C676.425 86.4801 676.308 86.9872 676.308 87.5284V88.3977C676.308 89.1392 676.436 89.7678 676.691 90.2834C676.951 90.7947 677.311 91.1847 677.772 91.4531C678.232 91.7173 678.767 91.8494 679.376 91.8494C679.772 91.8494 680.13 91.794 680.45 91.6832C680.774 91.5682 681.053 91.3977 681.287 91.1719C681.522 90.9418 681.703 90.6562 681.831 90.3153L683.288 90.7244C683.135 91.2188 682.877 91.6534 682.515 92.0284C682.152 92.3991 681.705 92.6889 681.172 92.8977C680.64 93.1023 680.041 93.2045 679.376 93.2045ZM687.245 79.9091V93H685.736V79.9091H687.245ZM690.008 93V83.1818H691.516V93H690.008ZM690.775 81.5455C690.481 81.5455 690.227 81.4453 690.014 81.245C689.805 81.0447 689.701 80.804 689.701 80.5227C689.701 80.2415 689.805 80.0007 690.014 79.8004C690.227 79.6001 690.481 79.5 690.775 79.5C691.069 79.5 691.32 79.6001 691.529 79.8004C691.742 80.0007 691.849 80.2415 691.849 80.5227C691.849 80.804 691.742 81.0447 691.529 81.245C691.32 81.4453 691.069 81.5455 690.775 81.5455ZM702.308 83.1818L698.677 93H697.143L693.512 83.1818H695.148L697.859 91.0057H697.961L700.671 83.1818H702.308ZM708.064 93.2045C707.118 93.2045 706.301 92.9957 705.615 92.5781C704.934 92.1562 704.407 91.5682 704.037 90.8139C703.67 90.0554 703.487 89.1733 703.487 88.1676C703.487 87.1619 703.67 86.2756 704.037 85.5085C704.407 84.7372 704.923 84.1364 705.583 83.706C706.248 83.2713 707.024 83.054 707.91 83.054C708.422 83.054 708.926 83.1392 709.425 83.3097C709.924 83.4801 710.377 83.7571 710.787 84.1406C711.196 84.5199 711.522 85.0227 711.765 85.6491C712.007 86.2756 712.129 87.0469 712.129 87.9631V88.6023H704.561V87.2983H710.595C710.595 86.7443 710.484 86.25 710.262 85.8153C710.045 85.3807 709.734 85.0376 709.329 84.7862C708.929 84.5348 708.456 84.4091 707.91 84.4091C707.309 84.4091 706.789 84.5582 706.35 84.8565C705.916 85.1506 705.581 85.5341 705.347 86.0071C705.113 86.4801 704.995 86.9872 704.995 87.5284V88.3977C704.995 89.1392 705.123 89.7678 705.379 90.2834C705.639 90.7947 705.999 91.1847 706.459 91.4531C706.919 91.7173 707.454 91.8494 708.064 91.8494C708.46 91.8494 708.818 91.794 709.137 91.6832C709.461 91.5682 709.74 91.3977 709.975 91.1719C710.209 90.9418 710.39 90.6562 710.518 90.3153L711.975 90.7244C711.822 91.2188 711.564 91.6534 711.202 92.0284C710.84 92.3991 710.392 92.6889 709.86 92.8977C709.327 93.1023 708.728 93.2045 708.064 93.2045ZM714.424 93V83.1818H715.881V84.6648H715.983C716.162 84.179 716.486 83.7848 716.955 83.4822C717.424 83.1797 717.952 83.0284 718.54 83.0284C718.651 83.0284 718.789 83.0305 718.956 83.0348C719.122 83.0391 719.248 83.0455 719.333 83.054V84.5881C719.282 84.5753 719.164 84.5561 718.981 84.5305C718.802 84.5007 718.613 84.4858 718.412 84.4858C717.935 84.4858 717.509 84.5859 717.134 84.7862C716.763 84.9822 716.469 85.255 716.252 85.6044C716.039 85.9496 715.932 86.3437 715.932 86.7869V93H714.424ZM722.391 96.6818C722.136 96.6818 721.908 96.6605 721.707 96.6179C721.507 96.5795 721.369 96.5412 721.292 96.5028L721.675 95.1733C722.042 95.267 722.366 95.3011 722.647 95.2756C722.928 95.25 723.178 95.1243 723.395 94.8984C723.616 94.6768 723.819 94.3168 724.002 93.8182L724.283 93.0511L720.653 83.1818H722.289L724.999 91.0057H725.102L727.812 83.1818H729.448L725.281 94.4318C725.093 94.9389 724.861 95.3587 724.584 95.6911C724.307 96.0277 723.985 96.277 723.619 96.4389C723.256 96.6009 722.847 96.6818 722.391 96.6818Z" fill="black"/>
<path d="M776.285 79.9091H778.177L782.626 90.7756H782.78L787.229 79.9091H789.121V93H787.638V83.054H787.51L783.419 93H781.987L777.896 83.054H777.768V93H776.285V79.9091ZM794.984 93.2301C794.362 93.2301 793.797 93.1129 793.29 92.8786C792.783 92.6399 792.38 92.2969 792.082 91.8494C791.783 91.3977 791.634 90.8523 791.634 90.2131C791.634 89.6506 791.745 89.1946 791.967 88.8452C792.188 88.4915 792.484 88.2145 792.855 88.0142C793.226 87.8139 793.635 87.6648 794.082 87.5668C794.534 87.4645 794.988 87.3835 795.444 87.3239C796.041 87.2472 796.524 87.1896 796.895 87.1513C797.27 87.1087 797.543 87.0384 797.713 86.9403C797.888 86.8423 797.975 86.6719 797.975 86.429V86.3778C797.975 85.7472 797.803 85.2571 797.457 84.9077C797.117 84.5582 796.599 84.3835 795.904 84.3835C795.184 84.3835 794.619 84.5412 794.21 84.8565C793.801 85.1719 793.514 85.5085 793.347 85.8665L791.916 85.3551C792.171 84.7585 792.512 84.294 792.938 83.9616C793.369 83.625 793.837 83.3906 794.345 83.2585C794.856 83.1222 795.359 83.054 795.853 83.054C796.168 83.054 796.531 83.0923 796.94 83.169C797.353 83.2415 797.752 83.3928 798.135 83.6229C798.523 83.853 798.845 84.2003 799.1 84.6648C799.356 85.1293 799.484 85.7514 799.484 86.5312V93H797.975V91.6705H797.899C797.796 91.8835 797.626 92.1115 797.387 92.3544C797.149 92.5973 796.831 92.804 796.435 92.9744C796.038 93.1449 795.555 93.2301 794.984 93.2301ZM795.214 91.875C795.81 91.875 796.313 91.7578 796.722 91.5234C797.136 91.2891 797.447 90.9865 797.656 90.6158C797.869 90.245 797.975 89.8551 797.975 89.446V88.0653C797.911 88.142 797.771 88.2124 797.553 88.2763C797.34 88.3359 797.093 88.3892 796.812 88.4361C796.535 88.4787 796.264 88.517 796 88.5511C795.74 88.581 795.529 88.6065 795.367 88.6278C794.975 88.679 794.609 88.7621 794.268 88.8771C793.931 88.9879 793.658 89.1562 793.45 89.3821C793.245 89.6037 793.143 89.9062 793.143 90.2898C793.143 90.8139 793.337 91.2102 793.725 91.4787C794.117 91.7429 794.613 91.875 795.214 91.875ZM802.237 93V83.1818H803.746V93H802.237ZM803.004 81.5455C802.71 81.5455 802.457 81.4453 802.244 81.245C802.035 81.0447 801.93 80.804 801.93 80.5227C801.93 80.2415 802.035 80.0007 802.244 79.8004C802.457 79.6001 802.71 79.5 803.004 79.5C803.298 79.5 803.55 79.6001 803.758 79.8004C803.972 80.0007 804.078 80.2415 804.078 80.5227C804.078 80.804 803.972 81.0447 803.758 81.245C803.55 81.4453 803.298 81.5455 803.004 81.5455ZM808.017 87.0938V93H806.509V83.1818H807.966V84.7159H808.094C808.324 84.2173 808.673 83.8168 809.142 83.5142C809.611 83.2074 810.216 83.054 810.957 83.054C811.622 83.054 812.204 83.1903 812.703 83.4631C813.201 83.7315 813.589 84.1406 813.866 84.6903C814.143 85.2358 814.281 85.9261 814.281 86.7614V93H812.773V86.8636C812.773 86.0923 812.573 85.4915 812.172 85.0611C811.771 84.6264 811.222 84.4091 810.523 84.4091C810.041 84.4091 809.611 84.5135 809.232 84.7223C808.857 84.9311 808.56 85.2358 808.343 85.6364C808.126 86.0369 808.017 86.5227 808.017 87.0938ZM821.308 83.1818V84.4602H816.22V83.1818H821.308ZM817.703 80.8295H819.211V90.1875C819.211 90.6136 819.273 90.9332 819.397 91.1463C819.524 91.3551 819.686 91.4957 819.882 91.5682C820.083 91.6364 820.294 91.6705 820.515 91.6705C820.681 91.6705 820.818 91.6619 820.924 91.6449C821.031 91.6236 821.116 91.6065 821.18 91.5938L821.487 92.9489C821.384 92.9872 821.242 93.0256 821.059 93.0639C820.875 93.1065 820.643 93.1278 820.362 93.1278C819.936 93.1278 819.518 93.0362 819.109 92.853C818.704 92.6697 818.367 92.3906 818.099 92.0156C817.835 91.6406 817.703 91.1676 817.703 90.5966V80.8295ZM827.588 93.2045C826.642 93.2045 825.826 92.9957 825.14 92.5781C824.458 92.1562 823.932 91.5682 823.561 90.8139C823.195 90.0554 823.011 89.1733 823.011 88.1676C823.011 87.1619 823.195 86.2756 823.561 85.5085C823.932 84.7372 824.447 84.1364 825.108 83.706C825.773 83.2713 826.548 83.054 827.435 83.054C827.946 83.054 828.451 83.1392 828.949 83.3097C829.448 83.4801 829.902 83.7571 830.311 84.1406C830.72 84.5199 831.046 85.0227 831.289 85.6491C831.532 86.2756 831.653 87.0469 831.653 87.9631V88.6023H824.085V87.2983H830.119C830.119 86.7443 830.008 86.25 829.787 85.8153C829.57 85.3807 829.258 85.0376 828.854 84.7862C828.453 84.5348 827.98 84.4091 827.435 84.4091C826.834 84.4091 826.314 84.5582 825.875 84.8565C825.44 85.1506 825.106 85.5341 824.871 86.0071C824.637 86.4801 824.52 86.9872 824.52 87.5284V88.3977C824.52 89.1392 824.648 89.7678 824.903 90.2834C825.163 90.7947 825.523 91.1847 825.984 91.4531C826.444 91.7173 826.979 91.8494 827.588 91.8494C827.984 91.8494 828.342 91.794 828.662 91.6832C828.986 91.5682 829.265 91.3977 829.499 91.1719C829.734 90.9418 829.915 90.6562 830.043 90.3153L831.5 90.7244C831.347 91.2188 831.089 91.6534 830.726 92.0284C830.364 92.3991 829.917 92.6889 829.384 92.8977C828.851 93.1023 828.253 93.2045 827.588 93.2045ZM835.457 87.0938V93H833.948V83.1818H835.405V84.7159H835.533C835.763 84.2173 836.113 83.8168 836.582 83.5142C837.05 83.2074 837.655 83.054 838.397 83.054C839.062 83.054 839.643 83.1903 840.142 83.4631C840.641 83.7315 841.028 84.1406 841.305 84.6903C841.582 85.2358 841.721 85.9261 841.721 86.7614V93H840.212V86.8636C840.212 86.0923 840.012 85.4915 839.611 85.0611C839.211 84.6264 838.661 84.4091 837.962 84.4091C837.481 84.4091 837.05 84.5135 836.671 84.7223C836.296 84.9311 836 85.2358 835.783 85.6364C835.565 86.0369 835.457 86.5227 835.457 87.0938ZM847.367 93.2301C846.744 93.2301 846.18 93.1129 845.673 92.8786C845.166 92.6399 844.763 92.2969 844.465 91.8494C844.166 91.3977 844.017 90.8523 844.017 90.2131C844.017 89.6506 844.128 89.1946 844.35 88.8452C844.571 88.4915 844.867 88.2145 845.238 88.0142C845.609 87.8139 846.018 87.6648 846.465 87.5668C846.917 87.4645 847.371 87.3835 847.827 87.3239C848.423 87.2472 848.907 87.1896 849.278 87.1513C849.653 87.1087 849.926 87.0384 850.096 86.9403C850.271 86.8423 850.358 86.6719 850.358 86.429V86.3778C850.358 85.7472 850.185 85.2571 849.84 84.9077C849.499 84.5582 848.982 84.3835 848.287 84.3835C847.567 84.3835 847.002 84.5412 846.593 84.8565C846.184 85.1719 845.896 85.5085 845.73 85.8665L844.298 85.3551C844.554 84.7585 844.895 84.294 845.321 83.9616C845.752 83.625 846.22 83.3906 846.727 83.2585C847.239 83.1222 847.742 83.054 848.236 83.054C848.551 83.054 848.913 83.0923 849.323 83.169C849.736 83.2415 850.134 83.3928 850.518 83.6229C850.906 83.853 851.227 84.2003 851.483 84.6648C851.739 85.1293 851.867 85.7514 851.867 86.5312V93H850.358V91.6705H850.281C850.179 91.8835 850.009 92.1115 849.77 92.3544C849.531 92.5973 849.214 92.804 848.818 92.9744C848.421 93.1449 847.938 93.2301 847.367 93.2301ZM847.597 91.875C848.193 91.875 848.696 91.7578 849.105 91.5234C849.519 91.2891 849.83 90.9865 850.038 90.6158C850.252 90.245 850.358 89.8551 850.358 89.446V88.0653C850.294 88.142 850.153 88.2124 849.936 88.2763C849.723 88.3359 849.476 88.3892 849.195 88.4361C848.918 88.4787 848.647 88.517 848.383 88.5511C848.123 88.581 847.912 88.6065 847.75 88.6278C847.358 88.679 846.992 88.7621 846.651 88.8771C846.314 88.9879 846.041 89.1562 845.832 89.3821C845.628 89.6037 845.526 89.9062 845.526 90.2898C845.526 90.8139 845.72 91.2102 846.107 91.4787C846.499 91.7429 846.996 91.875 847.597 91.875ZM856.128 87.0938V93H854.62V83.1818H856.077V84.7159H856.205C856.435 84.2173 856.785 83.8168 857.253 83.5142C857.722 83.2074 858.327 83.054 859.069 83.054C859.734 83.054 860.315 83.1903 860.814 83.4631C861.312 83.7315 861.7 84.1406 861.977 84.6903C862.254 85.2358 862.393 85.9261 862.393 86.7614V93H860.884V86.8636C860.884 86.0923 860.684 85.4915 860.283 85.0611C859.883 84.6264 859.333 84.4091 858.634 84.4091C858.153 84.4091 857.722 84.5135 857.343 84.7223C856.968 84.9311 856.672 85.2358 856.454 85.6364C856.237 86.0369 856.128 86.5227 856.128 87.0938ZM869.138 93.2045C868.217 93.2045 867.425 92.9872 866.76 92.5526C866.095 92.1179 865.584 91.5192 865.226 90.7564C864.868 89.9936 864.689 89.1222 864.689 88.142C864.689 87.1449 864.872 86.2649 865.239 85.5021C865.609 84.7351 866.125 84.1364 866.786 83.706C867.45 83.2713 868.226 83.054 869.112 83.054C869.803 83.054 870.425 83.1818 870.979 83.4375C871.533 83.6932 871.987 84.0511 872.34 84.5114C872.694 84.9716 872.913 85.5085 872.999 86.1222H871.49C871.375 85.6747 871.119 85.2784 870.723 84.9332C870.331 84.5838 869.803 84.4091 869.138 84.4091C868.55 84.4091 868.034 84.5625 867.591 84.8693C867.152 85.1719 866.809 85.6001 866.562 86.1541C866.319 86.7038 866.198 87.3494 866.198 88.0909C866.198 88.8494 866.317 89.5099 866.555 90.0724C866.798 90.6349 867.139 91.0717 867.578 91.3828C868.021 91.6939 868.541 91.8494 869.138 91.8494C869.53 91.8494 869.886 91.7812 870.205 91.6449C870.525 91.5085 870.796 91.3125 871.017 91.0568C871.239 90.8011 871.396 90.4943 871.49 90.1364H872.999C872.913 90.7159 872.703 91.2379 872.366 91.7024C872.033 92.1626 871.592 92.5291 871.043 92.8018C870.497 93.0703 869.862 93.2045 869.138 93.2045ZM879.32 93.2045C878.374 93.2045 877.558 92.9957 876.872 92.5781C876.19 92.1562 875.664 91.5682 875.293 90.8139C874.927 90.0554 874.744 89.1733 874.744 88.1676C874.744 87.1619 874.927 86.2756 875.293 85.5085C875.664 84.7372 876.18 84.1364 876.84 83.706C877.505 83.2713 878.281 83.054 879.167 83.054C879.678 83.054 880.183 83.1392 880.682 83.3097C881.18 83.4801 881.634 83.7571 882.043 84.1406C882.453 84.5199 882.778 85.0227 883.021 85.6491C883.264 86.2756 883.386 87.0469 883.386 87.9631V88.6023H875.818V87.2983H881.852C881.852 86.7443 881.741 86.25 881.519 85.8153C881.302 85.3807 880.991 85.0376 880.586 84.7862C880.185 84.5348 879.712 84.4091 879.167 84.4091C878.566 84.4091 878.046 84.5582 877.607 84.8565C877.173 85.1506 876.838 85.5341 876.604 86.0071C876.369 86.4801 876.252 86.9872 876.252 87.5284V88.3977C876.252 89.1392 876.38 89.7678 876.636 90.2834C876.896 90.7947 877.256 91.1847 877.716 91.4531C878.176 91.7173 878.711 91.8494 879.32 91.8494C879.717 91.8494 880.075 91.794 880.394 91.6832C880.718 91.5682 880.997 91.3977 881.232 91.1719C881.466 90.9418 881.647 90.6562 881.775 90.3153L883.232 90.7244C883.079 91.2188 882.821 91.6534 882.459 92.0284C882.097 92.3991 881.649 92.6889 881.117 92.8977C880.584 93.1023 879.985 93.2045 879.32 93.2045Z" fill="black"/>
<line x1="458" y1="85" x2="483" y2="85" stroke="#6E3DC1" stroke-width="2"/>
<line x1="179" y1="85" x2="204" y2="85" stroke="#6E3DC1" stroke-width="2"/>
<line x1="625" y1="85" x2="650" y2="85" stroke="#6E3DC1" stroke-width="2"/>
<line x1="741" y1="85" x2="766" y2="85" stroke="#6E3DC1" stroke-width="2"/>
</svg>
