<svg width="700" height="260" viewBox="0 0 700 260" fill="none" xmlns="http://www.w3.org/2000/svg">
<rect width="700" height="260" fill="white"/>
<rect x="475.5" y="151.5" width="110" height="84" rx="17.5" fill="white" stroke="#6E3DC1"/>
<line x1="343" y1="106" x2="368" y2="106" stroke="#6E3DC1" stroke-width="2"/>
<path d="M384.519 114H382.857L387.664 100.909H389.3L394.107 114H392.445L388.533 102.98H388.431L384.519 114ZM385.132 108.886H391.831V110.293H385.132V108.886ZM397.45 108.094V114H395.941V104.182H397.399V105.716H397.526C397.757 105.217 398.106 104.817 398.575 104.514C399.044 104.207 399.649 104.054 400.39 104.054C401.055 104.054 401.637 104.19 402.135 104.463C402.634 104.732 403.021 105.141 403.298 105.69C403.575 106.236 403.714 106.926 403.714 107.761V114H402.205V107.864C402.205 107.092 402.005 106.491 401.605 106.061C401.204 105.626 400.654 105.409 399.955 105.409C399.474 105.409 399.044 105.513 398.664 105.722C398.289 105.931 397.993 106.236 397.776 106.636C397.558 107.037 397.45 107.523 397.45 108.094ZM409.36 114.23C408.738 114.23 408.173 114.113 407.666 113.879C407.159 113.64 406.756 113.297 406.458 112.849C406.159 112.398 406.01 111.852 406.01 111.213C406.01 110.651 406.121 110.195 406.343 109.845C406.564 109.491 406.86 109.214 407.231 109.014C407.602 108.814 408.011 108.665 408.458 108.567C408.91 108.464 409.364 108.384 409.82 108.324C410.417 108.247 410.9 108.19 411.271 108.151C411.646 108.109 411.919 108.038 412.089 107.94C412.264 107.842 412.351 107.672 412.351 107.429V107.378C412.351 106.747 412.179 106.257 411.833 105.908C411.493 105.558 410.975 105.384 410.28 105.384C409.56 105.384 408.995 105.541 408.586 105.857C408.177 106.172 407.89 106.509 407.723 106.866L406.292 106.355C406.547 105.759 406.888 105.294 407.314 104.962C407.745 104.625 408.213 104.391 408.721 104.259C409.232 104.122 409.735 104.054 410.229 104.054C410.544 104.054 410.907 104.092 411.316 104.169C411.729 104.241 412.127 104.393 412.511 104.623C412.899 104.853 413.221 105.2 413.476 105.665C413.732 106.129 413.86 106.751 413.86 107.531V114H412.351V112.67H412.275C412.172 112.884 412.002 113.112 411.763 113.354C411.525 113.597 411.207 113.804 410.811 113.974C410.414 114.145 409.931 114.23 409.36 114.23ZM409.59 112.875C410.186 112.875 410.689 112.758 411.098 112.523C411.512 112.289 411.823 111.987 412.032 111.616C412.245 111.245 412.351 110.855 412.351 110.446V109.065C412.287 109.142 412.147 109.212 411.929 109.276C411.716 109.336 411.469 109.389 411.188 109.436C410.911 109.479 410.64 109.517 410.376 109.551C410.116 109.581 409.905 109.607 409.743 109.628C409.351 109.679 408.985 109.762 408.644 109.877C408.307 109.988 408.034 110.156 407.826 110.382C407.621 110.604 407.519 110.906 407.519 111.29C407.519 111.814 407.713 112.21 408.1 112.479C408.493 112.743 408.989 112.875 409.59 112.875ZM418.122 100.909V114H416.613V100.909H418.122ZM421.856 117.682C421.6 117.682 421.373 117.661 421.172 117.618C420.972 117.58 420.833 117.541 420.757 117.503L421.14 116.173C421.507 116.267 421.831 116.301 422.112 116.276C422.393 116.25 422.642 116.124 422.86 115.898C423.081 115.677 423.284 115.317 423.467 114.818L423.748 114.051L420.118 104.182H421.754L424.464 112.006H424.566L427.277 104.182H428.913L424.745 115.432C424.558 115.939 424.326 116.359 424.049 116.691C423.772 117.028 423.45 117.277 423.083 117.439C422.721 117.601 422.312 117.682 421.856 117.682ZM437.859 106.381L436.504 106.764C436.418 106.538 436.293 106.319 436.126 106.106C435.964 105.888 435.743 105.71 435.462 105.569C435.18 105.428 434.82 105.358 434.381 105.358C433.781 105.358 433.28 105.496 432.879 105.773C432.483 106.046 432.285 106.393 432.285 106.815C432.285 107.19 432.421 107.487 432.694 107.704C432.967 107.921 433.393 108.102 433.972 108.247L435.43 108.605C436.308 108.818 436.962 109.144 437.392 109.583C437.822 110.018 438.038 110.578 438.038 111.264C438.038 111.827 437.876 112.33 437.552 112.773C437.232 113.216 436.785 113.565 436.21 113.821C435.634 114.077 434.965 114.205 434.202 114.205C433.201 114.205 432.372 113.987 431.716 113.553C431.06 113.118 430.644 112.483 430.469 111.648L431.901 111.29C432.038 111.818 432.295 112.214 432.675 112.479C433.058 112.743 433.559 112.875 434.177 112.875C434.88 112.875 435.438 112.726 435.852 112.428C436.269 112.125 436.478 111.763 436.478 111.341C436.478 111 436.359 110.714 436.12 110.484C435.881 110.25 435.515 110.075 435.021 109.96L433.384 109.577C432.485 109.364 431.825 109.033 431.403 108.586C430.985 108.134 430.776 107.57 430.776 106.892C430.776 106.338 430.932 105.848 431.243 105.422C431.558 104.996 431.987 104.661 432.528 104.418C433.073 104.175 433.691 104.054 434.381 104.054C435.353 104.054 436.116 104.267 436.67 104.693C437.228 105.119 437.624 105.682 437.859 106.381ZM440.308 114V104.182H441.817V114H440.308ZM441.075 102.545C440.781 102.545 440.528 102.445 440.315 102.245C440.106 102.045 440.002 101.804 440.002 101.523C440.002 101.241 440.106 101.001 440.315 100.8C440.528 100.6 440.781 100.5 441.075 100.5C441.369 100.5 441.621 100.6 441.83 100.8C442.043 101.001 442.149 101.241 442.149 101.523C442.149 101.804 442.043 102.045 441.83 102.245C441.621 102.445 441.369 102.545 441.075 102.545ZM451.534 106.381L450.179 106.764C450.094 106.538 449.968 106.319 449.802 106.106C449.64 105.888 449.419 105.71 449.137 105.569C448.856 105.428 448.496 105.358 448.057 105.358C447.456 105.358 446.956 105.496 446.555 105.773C446.159 106.046 445.961 106.393 445.961 106.815C445.961 107.19 446.097 107.487 446.37 107.704C446.642 107.921 447.069 108.102 447.648 108.247L449.105 108.605C449.983 108.818 450.637 109.144 451.068 109.583C451.498 110.018 451.713 110.578 451.713 111.264C451.713 111.827 451.551 112.33 451.228 112.773C450.908 113.216 450.461 113.565 449.885 113.821C449.31 114.077 448.641 114.205 447.878 114.205C446.877 114.205 446.048 113.987 445.392 113.553C444.735 113.118 444.32 112.483 444.145 111.648L445.577 111.29C445.713 111.818 445.971 112.214 446.35 112.479C446.734 112.743 447.235 112.875 447.853 112.875C448.556 112.875 449.114 112.726 449.527 112.428C449.945 112.125 450.154 111.763 450.154 111.341C450.154 111 450.034 110.714 449.796 110.484C449.557 110.25 449.191 110.075 448.696 109.96L447.06 109.577C446.161 109.364 445.5 109.033 445.078 108.586C444.661 108.134 444.452 107.57 444.452 106.892C444.452 106.338 444.608 105.848 444.919 105.422C445.234 104.996 445.662 104.661 446.203 104.418C446.749 104.175 447.367 104.054 448.057 104.054C449.029 104.054 449.792 104.267 450.346 104.693C450.904 105.119 451.3 105.682 451.534 106.381Z" fill="black"/>
<line x1="467" y1="106" x2="492" y2="106" stroke="#6E3DC1" stroke-width="2"/>
<path d="M514.002 104.182C513.925 103.534 513.614 103.031 513.069 102.673C512.523 102.315 511.854 102.136 511.062 102.136C510.482 102.136 509.975 102.23 509.54 102.418C509.11 102.605 508.773 102.863 508.531 103.191C508.292 103.519 508.173 103.892 508.173 104.31C508.173 104.659 508.256 104.96 508.422 105.211C508.592 105.458 508.81 105.665 509.074 105.831C509.338 105.993 509.615 106.127 509.905 106.234C510.195 106.336 510.461 106.419 510.704 106.483L512.033 106.841C512.374 106.93 512.754 107.054 513.171 107.212C513.593 107.369 513.996 107.585 514.379 107.857C514.767 108.126 515.087 108.471 515.338 108.893C515.589 109.315 515.715 109.832 515.715 110.446C515.715 111.153 515.53 111.793 515.159 112.364C514.793 112.935 514.256 113.388 513.548 113.725C512.845 114.062 511.991 114.23 510.985 114.23C510.048 114.23 509.236 114.079 508.55 113.776C507.868 113.474 507.331 113.052 506.939 112.511C506.551 111.969 506.332 111.341 506.281 110.625H507.917C507.96 111.119 508.126 111.528 508.415 111.852C508.71 112.172 509.08 112.411 509.528 112.568C509.979 112.722 510.465 112.798 510.985 112.798C511.59 112.798 512.134 112.7 512.615 112.504C513.097 112.304 513.478 112.027 513.759 111.673C514.04 111.315 514.181 110.898 514.181 110.42C514.181 109.986 514.06 109.632 513.817 109.359C513.574 109.087 513.254 108.865 512.858 108.695C512.462 108.524 512.033 108.375 511.573 108.247L509.962 107.787C508.94 107.493 508.13 107.073 507.533 106.528C506.937 105.982 506.638 105.268 506.638 104.386C506.638 103.653 506.837 103.014 507.233 102.469C507.634 101.919 508.17 101.493 508.844 101.19C509.521 100.884 510.278 100.73 511.113 100.73C511.957 100.73 512.707 100.881 513.363 101.184C514.019 101.482 514.539 101.891 514.923 102.411C515.31 102.931 515.515 103.521 515.536 104.182H514.002ZM518.117 117.682V104.182H519.574V105.741H519.753C519.864 105.571 520.018 105.354 520.214 105.089C520.414 104.821 520.699 104.582 521.07 104.374C521.445 104.161 521.952 104.054 522.591 104.054C523.418 104.054 524.147 104.261 524.778 104.674C525.408 105.087 525.9 105.673 526.254 106.432C526.608 107.19 526.785 108.085 526.785 109.116C526.785 110.156 526.608 111.058 526.254 111.82C525.9 112.579 525.41 113.167 524.784 113.585C524.157 113.998 523.435 114.205 522.617 114.205C521.986 114.205 521.481 114.1 521.102 113.891C520.723 113.678 520.431 113.437 520.226 113.169C520.022 112.896 519.864 112.67 519.753 112.491H519.626V117.682H518.117ZM519.6 109.091C519.6 109.832 519.709 110.487 519.926 111.053C520.143 111.616 520.461 112.057 520.878 112.376C521.296 112.692 521.807 112.849 522.412 112.849C523.043 112.849 523.569 112.683 523.991 112.351C524.417 112.014 524.737 111.562 524.95 110.996C525.167 110.425 525.276 109.79 525.276 109.091C525.276 108.401 525.17 107.778 524.956 107.224C524.748 106.666 524.43 106.225 524.004 105.901C523.582 105.573 523.052 105.409 522.412 105.409C521.799 105.409 521.283 105.565 520.866 105.876C520.448 106.183 520.133 106.613 519.92 107.167C519.706 107.717 519.6 108.358 519.6 109.091ZM529.086 114V104.182H530.543V105.665H530.645C530.824 105.179 531.148 104.785 531.617 104.482C532.086 104.18 532.614 104.028 533.202 104.028C533.313 104.028 533.452 104.031 533.618 104.035C533.784 104.039 533.91 104.045 533.995 104.054V105.588C533.944 105.575 533.827 105.556 533.643 105.531C533.464 105.501 533.275 105.486 533.074 105.486C532.597 105.486 532.171 105.586 531.796 105.786C531.425 105.982 531.131 106.255 530.914 106.604C530.701 106.95 530.594 107.344 530.594 107.787V114H529.086ZM535.783 114V104.182H537.292V114H535.783ZM536.55 102.545C536.256 102.545 536.002 102.445 535.789 102.245C535.581 102.045 535.476 101.804 535.476 101.523C535.476 101.241 535.581 101.001 535.789 100.8C536.002 100.6 536.256 100.5 536.55 100.5C536.844 100.5 537.096 100.6 537.304 100.8C537.517 101.001 537.624 101.241 537.624 101.523C537.624 101.804 537.517 102.045 537.304 102.245C537.096 102.445 536.844 102.545 536.55 102.545ZM541.563 108.094V114H540.055V104.182H541.512V105.716H541.64C541.87 105.217 542.219 104.817 542.688 104.514C543.157 104.207 543.762 104.054 544.503 104.054C545.168 104.054 545.75 104.19 546.248 104.463C546.747 104.732 547.135 105.141 547.412 105.69C547.689 106.236 547.827 106.926 547.827 107.761V114H546.319V107.864C546.319 107.092 546.118 106.491 545.718 106.061C545.317 105.626 544.768 105.409 544.069 105.409C543.587 105.409 543.157 105.513 542.778 105.722C542.403 105.931 542.106 106.236 541.889 106.636C541.672 107.037 541.563 107.523 541.563 108.094ZM554.854 104.182V105.46H549.766V104.182H554.854ZM551.249 101.83H552.757V111.188C552.757 111.614 552.819 111.933 552.942 112.146C553.07 112.355 553.232 112.496 553.428 112.568C553.629 112.636 553.839 112.67 554.061 112.67C554.227 112.67 554.364 112.662 554.47 112.645C554.577 112.624 554.662 112.607 554.726 112.594L555.033 113.949C554.93 113.987 554.788 114.026 554.604 114.064C554.421 114.107 554.189 114.128 553.908 114.128C553.482 114.128 553.064 114.036 552.655 113.853C552.25 113.67 551.913 113.391 551.645 113.016C551.381 112.641 551.249 112.168 551.249 111.597V101.83Z" fill="black"/>
<line x1="569" y1="106" x2="594" y2="106" stroke="#6E3DC1" stroke-width="2"/>
<path d="M614.066 114H610.027V100.909H614.245C615.515 100.909 616.602 101.171 617.505 101.695C618.409 102.215 619.101 102.963 619.583 103.939C620.064 104.911 620.305 106.074 620.305 107.429C620.305 108.793 620.062 109.967 619.576 110.951C619.091 111.931 618.383 112.685 617.454 113.214C616.525 113.738 615.396 114 614.066 114ZM611.612 112.594H613.964C615.047 112.594 615.944 112.385 616.655 111.967C617.367 111.55 617.897 110.955 618.247 110.184C618.596 109.413 618.771 108.494 618.771 107.429C618.771 106.372 618.598 105.462 618.253 104.7C617.908 103.933 617.392 103.344 616.706 102.935C616.02 102.522 615.166 102.315 614.143 102.315H611.612V112.594ZM626.876 114.205C625.93 114.205 625.114 113.996 624.428 113.578C623.746 113.156 623.22 112.568 622.849 111.814C622.483 111.055 622.299 110.173 622.299 109.168C622.299 108.162 622.483 107.276 622.849 106.509C623.22 105.737 623.735 105.136 624.396 104.706C625.061 104.271 625.836 104.054 626.723 104.054C627.234 104.054 627.739 104.139 628.238 104.31C628.736 104.48 629.19 104.757 629.599 105.141C630.008 105.52 630.334 106.023 630.577 106.649C630.82 107.276 630.941 108.047 630.941 108.963V109.602H623.373V108.298H629.407C629.407 107.744 629.297 107.25 629.075 106.815C628.858 106.381 628.547 106.038 628.142 105.786C627.741 105.535 627.268 105.409 626.723 105.409C626.122 105.409 625.602 105.558 625.163 105.857C624.728 106.151 624.394 106.534 624.159 107.007C623.925 107.48 623.808 107.987 623.808 108.528V109.398C623.808 110.139 623.936 110.768 624.191 111.283C624.451 111.795 624.811 112.185 625.272 112.453C625.732 112.717 626.267 112.849 626.876 112.849C627.272 112.849 627.63 112.794 627.95 112.683C628.274 112.568 628.553 112.398 628.787 112.172C629.022 111.942 629.203 111.656 629.331 111.315L630.788 111.724C630.635 112.219 630.377 112.653 630.015 113.028C629.652 113.399 629.205 113.689 628.672 113.898C628.14 114.102 627.541 114.205 626.876 114.205ZM634.745 100.909V114H633.236V100.909H634.745ZM637.508 114V104.182H639.016V114H637.508ZM638.275 102.545C637.981 102.545 637.727 102.445 637.514 102.245C637.305 102.045 637.201 101.804 637.201 101.523C637.201 101.241 637.305 101.001 637.514 100.8C637.727 100.6 637.981 100.5 638.275 100.5C638.569 100.5 638.82 100.6 639.029 100.8C639.242 101.001 639.349 101.241 639.349 101.523C639.349 101.804 639.242 102.045 639.029 102.245C638.82 102.445 638.569 102.545 638.275 102.545ZM649.808 104.182L646.177 114H644.643L641.012 104.182H642.648L645.359 112.006H645.461L648.171 104.182H649.808ZM655.564 114.205C654.618 114.205 653.801 113.996 653.115 113.578C652.434 113.156 651.907 112.568 651.537 111.814C651.17 111.055 650.987 110.173 650.987 109.168C650.987 108.162 651.17 107.276 651.537 106.509C651.907 105.737 652.423 105.136 653.083 104.706C653.748 104.271 654.524 104.054 655.41 104.054C655.922 104.054 656.426 104.139 656.925 104.31C657.424 104.48 657.877 104.757 658.287 105.141C658.696 105.52 659.022 106.023 659.265 106.649C659.507 107.276 659.629 108.047 659.629 108.963V109.602H652.061V108.298H658.095C658.095 107.744 657.984 107.25 657.762 106.815C657.545 106.381 657.234 106.038 656.829 105.786C656.429 105.535 655.956 105.409 655.41 105.409C654.809 105.409 654.289 105.558 653.85 105.857C653.416 106.151 653.081 106.534 652.847 107.007C652.613 107.48 652.495 107.987 652.495 108.528V109.398C652.495 110.139 652.623 110.768 652.879 111.283C653.139 111.795 653.499 112.185 653.959 112.453C654.419 112.717 654.954 112.849 655.564 112.849C655.96 112.849 656.318 112.794 656.637 112.683C656.961 112.568 657.24 112.398 657.475 112.172C657.709 111.942 657.89 111.656 658.018 111.315L659.475 111.724C659.322 112.219 659.064 112.653 658.702 113.028C658.34 113.399 657.892 113.689 657.36 113.898C656.827 114.102 656.228 114.205 655.564 114.205ZM661.924 114V104.182H663.381V105.665H663.483C663.662 105.179 663.986 104.785 664.455 104.482C664.924 104.18 665.452 104.028 666.04 104.028C666.151 104.028 666.289 104.031 666.456 104.035C666.622 104.039 666.748 104.045 666.833 104.054V105.588C666.782 105.575 666.664 105.556 666.481 105.531C666.302 105.501 666.113 105.486 665.912 105.486C665.435 105.486 665.009 105.586 664.634 105.786C664.263 105.982 663.969 106.255 663.752 106.604C663.539 106.95 663.432 107.344 663.432 107.787V114H661.924ZM669.891 117.682C669.636 117.682 669.408 117.661 669.207 117.618C669.007 117.58 668.869 117.541 668.792 117.503L669.175 116.173C669.542 116.267 669.866 116.301 670.147 116.276C670.428 116.25 670.678 116.124 670.895 115.898C671.116 115.677 671.319 115.317 671.502 114.818L671.783 114.051L668.153 104.182H669.789L672.499 112.006H672.602L675.312 104.182H676.948L672.781 115.432C672.593 115.939 672.361 116.359 672.084 116.691C671.807 117.028 671.485 117.277 671.119 117.439C670.756 117.601 670.347 117.682 669.891 117.682Z" fill="black"/>
<path d="M221.147 114V100.909H225.57C226.593 100.909 227.432 101.084 228.089 101.433C228.745 101.778 229.231 102.254 229.546 102.859C229.861 103.464 230.019 104.152 230.019 104.923C230.019 105.695 229.861 106.379 229.546 106.975C229.231 107.572 228.747 108.04 228.095 108.381C227.443 108.718 226.61 108.886 225.596 108.886H222.016V107.455H225.544C226.243 107.455 226.806 107.352 227.232 107.148C227.662 106.943 227.973 106.653 228.165 106.278C228.361 105.899 228.459 105.447 228.459 104.923C228.459 104.399 228.361 103.941 228.165 103.549C227.969 103.157 227.656 102.854 227.226 102.641C226.795 102.424 226.226 102.315 225.519 102.315H222.732V114H221.147ZM227.309 108.119L230.53 114H228.689L225.519 108.119H227.309ZM236.467 114.205C235.521 114.205 234.705 113.996 234.019 113.578C233.337 113.156 232.811 112.568 232.44 111.814C232.073 111.055 231.89 110.173 231.89 109.168C231.89 108.162 232.073 107.276 232.44 106.509C232.811 105.737 233.326 105.136 233.987 104.706C234.652 104.271 235.427 104.054 236.313 104.054C236.825 104.054 237.33 104.139 237.828 104.31C238.327 104.48 238.781 104.757 239.19 105.141C239.599 105.52 239.925 106.023 240.168 106.649C240.411 107.276 240.532 108.047 240.532 108.963V109.602H232.964V108.298H238.998C238.998 107.744 238.887 107.25 238.666 106.815C238.448 106.381 238.137 106.038 237.733 105.786C237.332 105.535 236.859 105.409 236.313 105.409C235.713 105.409 235.193 105.558 234.754 105.857C234.319 106.151 233.985 106.534 233.75 107.007C233.516 107.48 233.399 107.987 233.399 108.528V109.398C233.399 110.139 233.527 110.768 233.782 111.283C234.042 111.795 234.402 112.185 234.862 112.453C235.323 112.717 235.858 112.849 236.467 112.849C236.863 112.849 237.221 112.794 237.541 112.683C237.865 112.568 238.144 112.398 238.378 112.172C238.612 111.942 238.794 111.656 238.921 111.315L240.379 111.724C240.225 112.219 239.968 112.653 239.605 113.028C239.243 113.399 238.796 113.689 238.263 113.898C237.73 114.102 237.132 114.205 236.467 114.205ZM249.526 117.682V112.491H249.398C249.287 112.67 249.13 112.896 248.925 113.169C248.72 113.437 248.429 113.678 248.049 113.891C247.67 114.1 247.165 114.205 246.534 114.205C245.716 114.205 244.994 113.998 244.367 113.585C243.741 113.167 243.251 112.579 242.897 111.82C242.544 111.058 242.367 110.156 242.367 109.116C242.367 108.085 242.544 107.19 242.897 106.432C243.251 105.673 243.743 105.087 244.374 104.674C245.005 104.261 245.733 104.054 246.56 104.054C247.199 104.054 247.704 104.161 248.075 104.374C248.45 104.582 248.735 104.821 248.931 105.089C249.132 105.354 249.287 105.571 249.398 105.741H249.577V104.182H251.034V117.682H249.526ZM246.739 112.849C247.344 112.849 247.855 112.692 248.273 112.376C248.691 112.057 249.008 111.616 249.225 111.053C249.443 110.487 249.551 109.832 249.551 109.091C249.551 108.358 249.445 107.717 249.232 107.167C249.019 106.613 248.703 106.183 248.286 105.876C247.868 105.565 247.353 105.409 246.739 105.409C246.1 105.409 245.567 105.573 245.141 105.901C244.719 106.225 244.402 106.666 244.188 107.224C243.98 107.778 243.875 108.401 243.875 109.091C243.875 109.79 243.982 110.425 244.195 110.996C244.412 111.562 244.732 112.014 245.154 112.351C245.58 112.683 246.108 112.849 246.739 112.849ZM259.983 109.986V104.182H261.492V114H259.983V112.338H259.881C259.651 112.837 259.293 113.261 258.807 113.61C258.321 113.955 257.708 114.128 256.966 114.128C256.353 114.128 255.807 113.994 255.33 113.725C254.853 113.452 254.478 113.043 254.205 112.498C253.932 111.948 253.796 111.256 253.796 110.42V104.182H255.304V110.318C255.304 111.034 255.505 111.605 255.905 112.031C256.31 112.457 256.826 112.67 257.452 112.67C257.827 112.67 258.208 112.575 258.596 112.383C258.988 112.191 259.316 111.897 259.581 111.501C259.849 111.104 259.983 110.599 259.983 109.986ZM264.255 114V104.182H265.763V114H264.255ZM265.022 102.545C264.728 102.545 264.474 102.445 264.261 102.245C264.052 102.045 263.948 101.804 263.948 101.523C263.948 101.241 264.052 101.001 264.261 100.8C264.474 100.6 264.728 100.5 265.022 100.5C265.316 100.5 265.567 100.6 265.776 100.8C265.989 101.001 266.096 101.241 266.096 101.523C266.096 101.804 265.989 102.045 265.776 102.245C265.567 102.445 265.316 102.545 265.022 102.545ZM268.526 114V104.182H269.984V105.665H270.086C270.265 105.179 270.589 104.785 271.057 104.482C271.526 104.18 272.055 104.028 272.643 104.028C272.753 104.028 272.892 104.031 273.058 104.035C273.224 104.039 273.35 104.045 273.435 104.054V105.588C273.384 105.575 273.267 105.556 273.084 105.531C272.905 105.501 272.715 105.486 272.515 105.486C272.038 105.486 271.611 105.586 271.236 105.786C270.866 105.982 270.572 106.255 270.354 106.604C270.141 106.95 270.035 107.344 270.035 107.787V114H268.526ZM279.041 114.205C278.095 114.205 277.279 113.996 276.593 113.578C275.911 113.156 275.385 112.568 275.014 111.814C274.648 111.055 274.464 110.173 274.464 109.168C274.464 108.162 274.648 107.276 275.014 106.509C275.385 105.737 275.9 105.136 276.561 104.706C277.226 104.271 278.001 104.054 278.888 104.054C279.399 104.054 279.904 104.139 280.403 104.31C280.901 104.48 281.355 104.757 281.764 105.141C282.173 105.52 282.499 106.023 282.742 106.649C282.985 107.276 283.106 108.047 283.106 108.963V109.602H275.538V108.298H281.572C281.572 107.744 281.462 107.25 281.24 106.815C281.023 106.381 280.712 106.038 280.307 105.786C279.906 105.535 279.433 105.409 278.888 105.409C278.287 105.409 277.767 105.558 277.328 105.857C276.893 106.151 276.559 106.534 276.324 107.007C276.09 107.48 275.973 107.987 275.973 108.528V109.398C275.973 110.139 276.101 110.768 276.356 111.283C276.616 111.795 276.976 112.185 277.437 112.453C277.897 112.717 278.432 112.849 279.041 112.849C279.437 112.849 279.795 112.794 280.115 112.683C280.439 112.568 280.718 112.398 280.952 112.172C281.187 111.942 281.368 111.656 281.496 111.315L282.953 111.724C282.8 112.219 282.542 112.653 282.18 113.028C281.817 113.399 281.37 113.689 280.837 113.898C280.305 114.102 279.706 114.205 279.041 114.205ZM285.401 114V104.182H286.859V105.716H286.986C287.191 105.192 287.521 104.785 287.977 104.495C288.433 104.201 288.981 104.054 289.62 104.054C290.268 104.054 290.807 104.201 291.237 104.495C291.672 104.785 292.011 105.192 292.253 105.716H292.356C292.607 105.209 292.984 104.806 293.487 104.508C293.99 104.205 294.593 104.054 295.296 104.054C296.174 104.054 296.892 104.329 297.45 104.879C298.008 105.424 298.288 106.274 298.288 107.429V114H296.779V107.429C296.779 106.705 296.581 106.187 296.185 105.876C295.788 105.565 295.322 105.409 294.785 105.409C294.094 105.409 293.56 105.618 293.18 106.036C292.801 106.449 292.611 106.973 292.611 107.608V114H291.077V107.276C291.077 106.717 290.896 106.268 290.534 105.927C290.172 105.582 289.705 105.409 289.134 105.409C288.742 105.409 288.376 105.513 288.035 105.722C287.698 105.931 287.425 106.221 287.217 106.592C287.012 106.958 286.91 107.382 286.91 107.864V114H285.401ZM305.162 114.205C304.216 114.205 303.4 113.996 302.714 113.578C302.032 113.156 301.506 112.568 301.135 111.814C300.769 111.055 300.585 110.173 300.585 109.168C300.585 108.162 300.769 107.276 301.135 106.509C301.506 105.737 302.022 105.136 302.682 104.706C303.347 104.271 304.122 104.054 305.009 104.054C305.52 104.054 306.025 104.139 306.524 104.31C307.022 104.48 307.476 104.757 307.885 105.141C308.294 105.52 308.62 106.023 308.863 106.649C309.106 107.276 309.228 108.047 309.228 108.963V109.602H301.659V108.298H307.693C307.693 107.744 307.583 107.25 307.361 106.815C307.144 106.381 306.833 106.038 306.428 105.786C306.027 105.535 305.554 105.409 305.009 105.409C304.408 105.409 303.888 105.558 303.449 105.857C303.014 106.151 302.68 106.534 302.446 107.007C302.211 107.48 302.094 107.987 302.094 108.528V109.398C302.094 110.139 302.222 110.768 302.478 111.283C302.737 111.795 303.098 112.185 303.558 112.453C304.018 112.717 304.553 112.849 305.162 112.849C305.559 112.849 305.916 112.794 306.236 112.683C306.56 112.568 306.839 112.398 307.073 112.172C307.308 111.942 307.489 111.656 307.617 111.315L309.074 111.724C308.921 112.219 308.663 112.653 308.301 113.028C307.938 113.399 307.491 113.689 306.958 113.898C306.426 114.102 305.827 114.205 305.162 114.205ZM313.031 108.094V114H311.522V104.182H312.98V105.716H313.108C313.338 105.217 313.687 104.817 314.156 104.514C314.625 104.207 315.23 104.054 315.971 104.054C316.636 104.054 317.218 104.19 317.716 104.463C318.215 104.732 318.603 105.141 318.88 105.69C319.157 106.236 319.295 106.926 319.295 107.761V114H317.786V107.864C317.786 107.092 317.586 106.491 317.186 106.061C316.785 105.626 316.235 105.409 315.536 105.409C315.055 105.409 314.625 105.513 314.245 105.722C313.87 105.931 313.574 106.236 313.357 106.636C313.139 107.037 313.031 107.523 313.031 108.094ZM326.321 104.182V105.46H321.233V104.182H326.321ZM322.716 101.83H324.225V111.188C324.225 111.614 324.287 111.933 324.41 112.146C324.538 112.355 324.7 112.496 324.896 112.568C325.096 112.636 325.307 112.67 325.529 112.67C325.695 112.67 325.831 112.662 325.938 112.645C326.044 112.624 326.13 112.607 326.194 112.594L326.5 113.949C326.398 113.987 326.255 114.026 326.072 114.064C325.889 114.107 325.657 114.128 325.375 114.128C324.949 114.128 324.532 114.036 324.123 113.853C323.718 113.67 323.381 113.391 323.113 113.016C322.848 112.641 322.716 112.168 322.716 111.597V101.83ZM335.369 106.381L334.014 106.764C333.929 106.538 333.803 106.319 333.637 106.106C333.475 105.888 333.254 105.71 332.972 105.569C332.691 105.428 332.331 105.358 331.892 105.358C331.291 105.358 330.791 105.496 330.39 105.773C329.994 106.046 329.796 106.393 329.796 106.815C329.796 107.19 329.932 107.487 330.205 107.704C330.477 107.921 330.903 108.102 331.483 108.247L332.94 108.605C333.818 108.818 334.472 109.144 334.903 109.583C335.333 110.018 335.548 110.578 335.548 111.264C335.548 111.827 335.386 112.33 335.063 112.773C334.743 113.216 334.296 113.565 333.72 113.821C333.145 114.077 332.476 114.205 331.713 114.205C330.712 114.205 329.883 113.987 329.227 113.553C328.57 113.118 328.155 112.483 327.98 111.648L329.412 111.29C329.548 111.818 329.806 112.214 330.185 112.479C330.569 112.743 331.07 112.875 331.688 112.875C332.391 112.875 332.949 112.726 333.362 112.428C333.78 112.125 333.989 111.763 333.989 111.341C333.989 111 333.869 110.714 333.631 110.484C333.392 110.25 333.026 110.075 332.531 109.96L330.895 109.577C329.996 109.364 329.335 109.033 328.913 108.586C328.496 108.134 328.287 107.57 328.287 106.892C328.287 106.338 328.443 105.848 328.754 105.422C329.069 104.996 329.497 104.661 330.038 104.418C330.584 104.175 331.202 104.054 331.892 104.054C332.864 104.054 333.627 104.267 334.18 104.693C334.739 105.119 335.135 105.682 335.369 106.381Z" fill="black"/>
<rect x="23" y="73" width="163" height="68" rx="34" stroke="#6E3DC1" stroke-width="2"/>
<path d="M85.046 114H83.3841L88.1909 100.909H89.8272L94.6341 114H92.9721L89.0602 102.98H88.9579L85.046 114ZM85.6596 108.886H92.3585V110.293H85.6596V108.886ZM100.432 117.886C99.7029 117.886 99.0765 117.793 98.5524 117.605C98.0282 117.422 97.5914 117.179 97.242 116.876C96.8968 116.578 96.622 116.259 96.4174 115.918L97.6191 115.074C97.7555 115.253 97.9281 115.457 98.1369 115.688C98.3457 115.922 98.6312 116.124 98.9934 116.295C99.3599 116.469 99.8393 116.557 100.432 116.557C101.224 116.557 101.878 116.365 102.394 115.982C102.91 115.598 103.167 114.997 103.167 114.179V112.185H103.04C102.929 112.364 102.771 112.585 102.567 112.849C102.366 113.109 102.077 113.342 101.697 113.546C101.322 113.746 100.815 113.847 100.176 113.847C99.3833 113.847 98.6717 113.659 98.041 113.284C97.4146 112.909 96.9181 112.364 96.5517 111.648C96.1895 110.932 96.0083 110.062 96.0083 109.04C96.0083 108.034 96.1852 107.158 96.5389 106.413C96.8926 105.663 97.3848 105.083 98.0154 104.674C98.6461 104.261 99.3748 104.054 100.202 104.054C100.841 104.054 101.348 104.161 101.723 104.374C102.102 104.582 102.392 104.821 102.592 105.089C102.797 105.354 102.954 105.571 103.065 105.741H103.219V104.182H104.676V114.281C104.676 115.125 104.484 115.811 104.101 116.339C103.721 116.872 103.21 117.262 102.567 117.509C101.927 117.761 101.216 117.886 100.432 117.886ZM100.381 112.491C100.986 112.491 101.497 112.353 101.915 112.076C102.332 111.799 102.65 111.401 102.867 110.881C103.084 110.361 103.193 109.739 103.193 109.014C103.193 108.307 103.086 107.683 102.873 107.141C102.66 106.6 102.345 106.176 101.927 105.869C101.51 105.562 100.994 105.409 100.381 105.409C99.7413 105.409 99.2086 105.571 98.7825 105.895C98.3606 106.219 98.0431 106.653 97.8301 107.199C97.6213 107.744 97.5169 108.349 97.5169 109.014C97.5169 109.696 97.6234 110.299 97.8365 110.823C98.0538 111.343 98.3734 111.752 98.7953 112.05C99.2214 112.344 99.7498 112.491 100.381 112.491ZM107.437 114V104.182H108.946V114H107.437ZM108.204 102.545C107.91 102.545 107.657 102.445 107.444 102.245C107.235 102.045 107.131 101.804 107.131 101.523C107.131 101.241 107.235 101.001 107.444 100.8C107.657 100.6 107.91 100.5 108.204 100.5C108.498 100.5 108.75 100.6 108.959 100.8C109.172 101.001 109.278 101.241 109.278 101.523C109.278 101.804 109.172 102.045 108.959 102.245C108.75 102.445 108.498 102.545 108.204 102.545ZM113.217 100.909V114H111.709V100.909H113.217ZM120.097 114.205C119.151 114.205 118.335 113.996 117.649 113.578C116.967 113.156 116.441 112.568 116.07 111.814C115.703 111.055 115.52 110.173 115.52 109.168C115.52 108.162 115.703 107.276 116.07 106.509C116.441 105.737 116.956 105.136 117.617 104.706C118.281 104.271 119.057 104.054 119.943 104.054C120.455 104.054 120.96 104.139 121.458 104.31C121.957 104.48 122.411 104.757 122.82 105.141C123.229 105.52 123.555 106.023 123.798 106.649C124.041 107.276 124.162 108.047 124.162 108.963V109.602H116.594V108.298H122.628C122.628 107.744 122.517 107.25 122.296 106.815C122.078 106.381 121.767 106.038 121.362 105.786C120.962 105.535 120.489 105.409 119.943 105.409C119.343 105.409 118.823 105.558 118.384 105.857C117.949 106.151 117.615 106.534 117.38 107.007C117.146 107.48 117.029 107.987 117.029 108.528V109.398C117.029 110.139 117.156 110.768 117.412 111.283C117.672 111.795 118.032 112.185 118.492 112.453C118.953 112.717 119.487 112.849 120.097 112.849C120.493 112.849 120.851 112.794 121.171 112.683C121.494 112.568 121.774 112.398 122.008 112.172C122.242 111.942 122.423 111.656 122.551 111.315L124.009 111.724C123.855 112.219 123.597 112.653 123.235 113.028C122.873 113.399 122.426 113.689 121.893 113.898C121.36 114.102 120.762 114.205 120.097 114.205Z" fill="black"/>
<line x1="187" y1="106" x2="212" y2="106" stroke="#6E3DC1" stroke-width="2"/>
<mask id="path-13-inside-1_2_76" fill="white">
<path d="M644 93.5C644 83.4539 641.206 73.5061 635.779 64.2247C630.351 54.9433 622.396 46.51 612.368 39.4063C602.339 32.3026 590.433 26.6677 577.33 22.8232C564.227 18.9787 550.183 17 536 17C521.817 17 507.773 18.9787 494.67 22.8232C481.567 26.6677 469.661 32.3027 459.632 39.4063C449.604 46.51 441.649 54.9433 436.221 64.2247C430.794 73.5061 428 83.4539 428 93.5L536 93.5H644Z"/>
</mask>
<path d="M644 93.5C644 83.4539 641.206 73.5061 635.779 64.2247C630.351 54.9433 622.396 46.51 612.368 39.4063C602.339 32.3026 590.433 26.6677 577.33 22.8232C564.227 18.9787 550.183 17 536 17C521.817 17 507.773 18.9787 494.67 22.8232C481.567 26.6677 469.661 32.3027 459.632 39.4063C449.604 46.51 441.649 54.9433 436.221 64.2247C430.794 73.5061 428 83.4539 428 93.5L536 93.5H644Z" stroke="#6E3DC1" stroke-width="2" stroke-dasharray="2 2" mask="url(#path-13-inside-1_2_76)"/>
<mask id="path-14-inside-2_2_76" fill="white">
<path d="M413 93.5C413 86.2116 411.513 78.9946 408.623 72.2611C405.733 65.5275 401.498 59.4092 396.159 54.2556C390.819 49.1019 384.481 45.0138 377.504 42.2247C370.528 39.4355 363.051 38 355.5 38C347.949 38 340.472 39.4356 333.496 42.2247C326.519 45.0138 320.181 49.1019 314.841 54.2556C309.502 59.4092 305.267 65.5275 302.377 72.2611C299.487 78.9946 298 86.2116 298 93.5L355.5 93.5H413Z"/>
</mask>
<path d="M413 93.5C413 86.2116 411.513 78.9946 408.623 72.2611C405.733 65.5275 401.498 59.4092 396.159 54.2556C390.819 49.1019 384.481 45.0138 377.504 42.2247C370.528 39.4355 363.051 38 355.5 38C347.949 38 340.472 39.4356 333.496 42.2247C326.519 45.0138 320.181 49.1019 314.841 54.2556C309.502 59.4092 305.267 65.5275 302.377 72.2611C299.487 78.9946 298 86.2116 298 93.5L355.5 93.5H413Z" stroke="#6E3DC1" stroke-width="2" stroke-dasharray="2 2" mask="url(#path-14-inside-2_2_76)"/>
<mask id="path-15-inside-3_2_76" fill="white">
<path d="M294 125C294 134.813 291.629 144.224 287.41 151.163C283.19 158.102 277.467 162 271.5 162C265.533 162 259.81 158.102 255.59 151.163C251.371 144.224 249 134.813 249 125L271.5 125H294Z"/>
</mask>
<path d="M294 125C294 134.813 291.629 144.224 287.41 151.163C283.19 158.102 277.467 162 271.5 162C265.533 162 259.81 158.102 255.59 151.163C251.371 144.224 249 134.813 249 125L271.5 125H294Z" stroke="#6E3DC1" stroke-width="2" stroke-dasharray="2 2" mask="url(#path-15-inside-3_2_76)"/>
<line x1="294" y1="125.5" x2="249" y2="125.5" stroke="white"/>
<path d="M253.665 129.685C254.147 130.251 254.317 130.944 254.173 131.765C254.03 132.587 253.664 133.033 253.074 133.104L246.323 133.915C245.733 133.985 245.281 133.637 244.965 132.87C244.649 132.105 244.665 131.389 245.013 130.724L247.873 125.261C247.982 125.051 248.109 124.888 248.251 124.772C248.393 124.657 248.552 124.588 248.727 124.567C248.902 124.546 249.071 124.575 249.234 124.654C249.398 124.733 249.556 124.862 249.708 125.04L253.665 129.685Z" fill="#6E3DC1"/>
<rect x="222" y="164" width="99" height="15" fill="white"/>
<path d="M236.922 177.17C236.155 177.17 235.494 176.989 234.94 176.627C234.386 176.265 233.96 175.766 233.662 175.13C233.363 174.495 233.214 173.768 233.214 172.952C233.214 172.121 233.367 171.387 233.672 170.752C233.981 170.113 234.411 169.614 234.961 169.255C235.515 168.893 236.162 168.712 236.9 168.712C237.476 168.712 237.994 168.818 238.456 169.031C238.917 169.244 239.296 169.543 239.59 169.926C239.885 170.31 240.068 170.757 240.139 171.268H238.882C238.786 170.896 238.573 170.565 238.243 170.278C237.916 169.987 237.476 169.841 236.922 169.841C236.432 169.841 236.002 169.969 235.633 170.224C235.267 170.477 234.981 170.833 234.775 171.295C234.573 171.753 234.471 172.291 234.471 172.909C234.471 173.541 234.571 174.092 234.77 174.56C234.972 175.029 235.256 175.393 235.622 175.652C235.991 175.912 236.425 176.041 236.922 176.041C237.248 176.041 237.545 175.984 237.811 175.871C238.078 175.757 238.303 175.594 238.488 175.381C238.672 175.168 238.804 174.912 238.882 174.614H240.139C240.068 175.097 239.892 175.532 239.612 175.919C239.335 176.302 238.967 176.608 238.509 176.835C238.055 177.059 237.525 177.17 236.922 177.17ZM245.301 177.17C244.562 177.17 243.914 176.995 243.356 176.643C242.802 176.292 242.369 175.8 242.057 175.168C241.748 174.536 241.593 173.797 241.593 172.952C241.593 172.099 241.748 171.355 242.057 170.72C242.369 170.084 242.802 169.591 243.356 169.239C243.914 168.887 244.562 168.712 245.301 168.712C246.039 168.712 246.686 168.887 247.24 169.239C247.797 169.591 248.23 170.084 248.539 170.72C248.852 171.355 249.008 172.099 249.008 172.952C249.008 173.797 248.852 174.536 248.539 175.168C248.23 175.8 247.797 176.292 247.24 176.643C246.686 176.995 246.039 177.17 245.301 177.17ZM245.301 176.041C245.862 176.041 246.323 175.897 246.686 175.61C247.048 175.322 247.316 174.944 247.49 174.475C247.664 174.006 247.751 173.499 247.751 172.952C247.751 172.405 247.664 171.895 247.49 171.423C247.316 170.951 247.048 170.569 246.686 170.278C246.323 169.987 245.862 169.841 245.301 169.841C244.74 169.841 244.278 169.987 243.916 170.278C243.553 170.569 243.285 170.951 243.111 171.423C242.937 171.895 242.85 172.405 242.85 172.952C242.85 173.499 242.937 174.006 243.111 174.475C243.285 174.944 243.553 175.322 243.916 175.61C244.278 175.897 244.74 176.041 245.301 176.041ZM252.184 172.078V177H250.927V168.818H252.141V170.097H252.248C252.44 169.681 252.731 169.347 253.122 169.095C253.512 168.839 254.016 168.712 254.634 168.712C255.188 168.712 255.673 168.825 256.089 169.053C256.504 169.276 256.827 169.617 257.058 170.075C257.289 170.53 257.404 171.105 257.404 171.801V177H256.147V171.886C256.147 171.244 255.98 170.743 255.646 170.384C255.313 170.022 254.854 169.841 254.272 169.841C253.871 169.841 253.512 169.928 253.196 170.102C252.884 170.276 252.637 170.53 252.456 170.864C252.275 171.197 252.184 171.602 252.184 172.078ZM263.26 168.818V169.884H259.02V168.818H263.26ZM260.255 166.858H261.512V174.656C261.512 175.011 261.564 175.278 261.667 175.455C261.773 175.629 261.908 175.746 262.072 175.807C262.239 175.864 262.414 175.892 262.599 175.892C262.738 175.892 262.851 175.885 262.94 175.871C263.029 175.853 263.1 175.839 263.153 175.828L263.409 176.957C263.324 176.989 263.205 177.021 263.052 177.053C262.899 177.089 262.706 177.107 262.471 177.107C262.116 177.107 261.768 177.03 261.427 176.877C261.09 176.725 260.809 176.492 260.586 176.18C260.365 175.867 260.255 175.473 260.255 174.997V166.858ZM265.151 177V168.818H266.408V177H265.151ZM265.79 167.455C265.545 167.455 265.333 167.371 265.156 167.204C264.982 167.037 264.895 166.837 264.895 166.602C264.895 166.368 264.982 166.167 265.156 166C265.333 165.833 265.545 165.75 265.79 165.75C266.035 165.75 266.244 165.833 266.418 166C266.596 166.167 266.685 166.368 266.685 166.602C266.685 166.837 266.596 167.037 266.418 167.204C266.244 167.371 266.035 167.455 265.79 167.455ZM269.967 172.078V177H268.71V168.818H269.925V170.097H270.031C270.223 169.681 270.514 169.347 270.905 169.095C271.295 168.839 271.8 168.712 272.418 168.712C272.972 168.712 273.456 168.825 273.872 169.053C274.287 169.276 274.61 169.617 274.841 170.075C275.072 170.53 275.187 171.105 275.187 171.801V177H273.93V171.886C273.93 171.244 273.763 170.743 273.43 170.384C273.096 170.022 272.638 169.841 272.055 169.841C271.654 169.841 271.295 169.928 270.979 170.102C270.667 170.276 270.42 170.53 270.239 170.864C270.058 171.197 269.967 171.602 269.967 172.078ZM282.641 173.655V168.818H283.898V177H282.641V175.615H282.556C282.364 176.031 282.066 176.384 281.661 176.675C281.256 176.963 280.744 177.107 280.127 177.107C279.615 177.107 279.161 176.995 278.763 176.771C278.365 176.544 278.053 176.203 277.825 175.748C277.598 175.29 277.485 174.713 277.485 174.017V168.818H278.742V173.932C278.742 174.528 278.909 175.004 279.242 175.359C279.58 175.714 280.009 175.892 280.531 175.892C280.844 175.892 281.162 175.812 281.485 175.652C281.812 175.493 282.085 175.248 282.305 174.917C282.529 174.587 282.641 174.166 282.641 173.655ZM289.524 177.17C288.786 177.17 288.138 176.995 287.58 176.643C287.026 176.292 286.593 175.8 286.28 175.168C285.971 174.536 285.817 173.797 285.817 172.952C285.817 172.099 285.971 171.355 286.28 170.72C286.593 170.084 287.026 169.591 287.58 169.239C288.138 168.887 288.786 168.712 289.524 168.712C290.263 168.712 290.909 168.887 291.463 169.239C292.021 169.591 292.454 170.084 292.763 170.72C293.075 171.355 293.232 172.099 293.232 172.952C293.232 173.797 293.075 174.536 292.763 175.168C292.454 175.8 292.021 176.292 291.463 176.643C290.909 176.995 290.263 177.17 289.524 177.17ZM289.524 176.041C290.085 176.041 290.547 175.897 290.909 175.61C291.271 175.322 291.54 174.944 291.714 174.475C291.888 174.006 291.975 173.499 291.975 172.952C291.975 172.405 291.888 171.895 291.714 171.423C291.54 170.951 291.271 170.569 290.909 170.278C290.547 169.987 290.085 169.841 289.524 169.841C288.963 169.841 288.502 169.987 288.139 170.278C287.777 170.569 287.509 170.951 287.335 171.423C287.161 171.895 287.074 172.405 287.074 172.952C287.074 173.499 287.161 174.006 287.335 174.475C287.509 174.944 287.777 175.322 288.139 175.61C288.502 175.897 288.963 176.041 289.524 176.041ZM300.307 173.655V168.818H301.564V177H300.307V175.615H300.222C300.03 176.031 299.732 176.384 299.327 176.675C298.922 176.963 298.411 177.107 297.793 177.107C297.281 177.107 296.827 176.995 296.429 176.771C296.031 176.544 295.719 176.203 295.491 175.748C295.264 175.29 295.151 174.713 295.151 174.017V168.818H296.408V173.932C296.408 174.528 296.575 175.004 296.908 175.359C297.246 175.714 297.675 175.892 298.197 175.892C298.51 175.892 298.828 175.812 299.151 175.652C299.478 175.493 299.751 175.248 299.971 174.917C300.195 174.587 300.307 174.166 300.307 173.655ZM309.662 170.651L308.533 170.97C308.462 170.782 308.357 170.599 308.218 170.422C308.083 170.24 307.899 170.091 307.664 169.974C307.43 169.857 307.13 169.798 306.764 169.798C306.263 169.798 305.846 169.914 305.512 170.145C305.182 170.372 305.017 170.661 305.017 171.013C305.017 171.325 305.131 171.572 305.358 171.753C305.585 171.934 305.94 172.085 306.423 172.206L307.638 172.504C308.369 172.682 308.914 172.953 309.273 173.319C309.632 173.681 309.811 174.148 309.811 174.72C309.811 175.189 309.676 175.608 309.406 175.977C309.14 176.347 308.767 176.638 308.288 176.851C307.808 177.064 307.251 177.17 306.615 177.17C305.78 177.17 305.09 176.989 304.543 176.627C303.996 176.265 303.65 175.736 303.504 175.04L304.697 174.741C304.811 175.182 305.026 175.512 305.342 175.732C305.661 175.952 306.079 176.062 306.594 176.062C307.18 176.062 307.645 175.938 307.989 175.69C308.337 175.437 308.511 175.136 308.511 174.784C308.511 174.5 308.412 174.262 308.213 174.07C308.014 173.875 307.709 173.729 307.297 173.634L305.933 173.314C305.184 173.136 304.633 172.861 304.282 172.488C303.934 172.112 303.76 171.641 303.76 171.077C303.76 170.615 303.889 170.207 304.149 169.852C304.411 169.496 304.768 169.218 305.219 169.015C305.674 168.813 306.189 168.712 306.764 168.712C307.574 168.712 308.209 168.889 308.671 169.244C309.136 169.599 309.467 170.068 309.662 170.651Z" fill="#6E3DC1"/>
<rect x="315" y="23" width="81" height="15" fill="white"/>
<path d="M320.922 36.1705C320.155 36.1705 319.494 35.9893 318.94 35.6271C318.386 35.2649 317.96 34.766 317.662 34.1303C317.363 33.4947 317.214 32.7685 317.214 31.9517C317.214 31.1207 317.367 30.3874 317.672 29.7518C317.981 29.1126 318.411 28.6136 318.961 28.255C319.515 27.8928 320.162 27.7116 320.9 27.7116C321.476 27.7116 321.994 27.8182 322.456 28.0312C322.917 28.2443 323.296 28.5426 323.59 28.9261C323.885 29.3097 324.068 29.7571 324.139 30.2685H322.882C322.786 29.8956 322.573 29.5653 322.243 29.2777C321.916 28.9865 321.476 28.8409 320.922 28.8409C320.432 28.8409 320.002 28.9687 319.633 29.2244C319.267 29.4766 318.981 29.8335 318.775 30.2951C318.573 30.7532 318.471 31.2912 318.471 31.9091C318.471 32.5412 318.571 33.0916 318.77 33.5604C318.972 34.0291 319.256 34.3931 319.622 34.6523C319.991 34.9116 320.425 35.0412 320.922 35.0412C321.248 35.0412 321.545 34.9844 321.811 34.8707C322.078 34.7571 322.303 34.5938 322.488 34.3807C322.672 34.1676 322.804 33.9119 322.882 33.6136H324.139C324.068 34.0966 323.892 34.5316 323.612 34.9187C323.335 35.3022 322.967 35.6076 322.509 35.8349C322.055 36.0586 321.525 36.1705 320.922 36.1705ZM329.301 36.1705C328.562 36.1705 327.914 35.9947 327.356 35.6431C326.802 35.2915 326.369 34.7997 326.057 34.1676C325.748 33.5355 325.593 32.7969 325.593 31.9517C325.593 31.0994 325.748 30.3555 326.057 29.7198C326.369 29.0842 326.802 28.5906 327.356 28.239C327.914 27.8874 328.562 27.7116 329.301 27.7116C330.039 27.7116 330.686 27.8874 331.24 28.239C331.797 28.5906 332.23 29.0842 332.539 29.7198C332.852 30.3555 333.008 31.0994 333.008 31.9517C333.008 32.7969 332.852 33.5355 332.539 34.1676C332.23 34.7997 331.797 35.2915 331.24 35.6431C330.686 35.9947 330.039 36.1705 329.301 36.1705ZM329.301 35.0412C329.862 35.0412 330.323 34.8974 330.686 34.6097C331.048 34.3221 331.316 33.9439 331.49 33.4751C331.664 33.0064 331.751 32.4986 331.751 31.9517C331.751 31.4048 331.664 30.8952 331.49 30.4229C331.316 29.9506 331.048 29.5689 330.686 29.2777C330.323 28.9865 329.862 28.8409 329.301 28.8409C328.74 28.8409 328.278 28.9865 327.916 29.2777C327.553 29.5689 327.285 29.9506 327.111 30.4229C326.937 30.8952 326.85 31.4048 326.85 31.9517C326.85 32.4986 326.937 33.0064 327.111 33.4751C327.285 33.9439 327.553 34.3221 327.916 34.6097C328.278 34.8974 328.74 35.0412 329.301 35.0412ZM336.184 31.0781V36H334.927V27.8182H336.141V29.0966H336.248C336.44 28.6811 336.731 28.3473 337.122 28.0952C337.512 27.8395 338.016 27.7116 338.634 27.7116C339.188 27.7116 339.673 27.8253 340.089 28.0526C340.504 28.2763 340.827 28.6172 341.058 29.0753C341.289 29.5298 341.404 30.1051 341.404 30.8011V36H340.147V30.8864C340.147 30.2436 339.98 29.7429 339.646 29.3842C339.313 29.022 338.854 28.8409 338.272 28.8409C337.871 28.8409 337.512 28.9279 337.196 29.1019C336.884 29.2759 336.637 29.5298 336.456 29.8636C336.275 30.1974 336.184 30.6023 336.184 31.0781ZM347.26 27.8182V28.8835H343.02V27.8182H347.26ZM344.255 25.858H345.512V33.6562C345.512 34.0114 345.564 34.2777 345.667 34.4553C345.773 34.6293 345.908 34.7464 346.072 34.8068C346.239 34.8636 346.414 34.892 346.599 34.892C346.738 34.892 346.851 34.8849 346.94 34.8707C347.029 34.853 347.1 34.8388 347.153 34.8281L347.409 35.9574C347.324 35.9893 347.205 36.0213 347.052 36.0533C346.899 36.0888 346.706 36.1065 346.471 36.1065C346.116 36.1065 345.768 36.0302 345.427 35.8775C345.09 35.7248 344.809 35.4922 344.586 35.1797C344.365 34.8672 344.255 34.473 344.255 33.9972V25.858ZM349.151 36V27.8182H350.408V36H349.151ZM349.79 26.4545C349.545 26.4545 349.333 26.3711 349.156 26.2042C348.982 26.0373 348.895 25.8366 348.895 25.6023C348.895 25.3679 348.982 25.1673 349.156 25.0004C349.333 24.8335 349.545 24.75 349.79 24.75C350.035 24.75 350.244 24.8335 350.418 25.0004C350.596 25.1673 350.685 25.3679 350.685 25.6023C350.685 25.8366 350.596 26.0373 350.418 26.2042C350.244 26.3711 350.035 26.4545 349.79 26.4545ZM353.967 31.0781V36H352.71V27.8182H353.925V29.0966H354.031C354.223 28.6811 354.514 28.3473 354.905 28.0952C355.295 27.8395 355.8 27.7116 356.418 27.7116C356.972 27.7116 357.456 27.8253 357.872 28.0526C358.287 28.2763 358.61 28.6172 358.841 29.0753C359.072 29.5298 359.187 30.1051 359.187 30.8011V36H357.93V30.8864C357.93 30.2436 357.763 29.7429 357.43 29.3842C357.096 29.022 356.638 28.8409 356.055 28.8409C355.654 28.8409 355.295 28.9279 354.979 29.1019C354.667 29.2759 354.42 29.5298 354.239 29.8636C354.058 30.1974 353.967 30.6023 353.967 31.0781ZM366.641 32.6548V27.8182H367.898V36H366.641V34.6151H366.556C366.364 35.0305 366.066 35.3839 365.661 35.6751C365.256 35.9627 364.744 36.1065 364.127 36.1065C363.615 36.1065 363.161 35.9947 362.763 35.771C362.365 35.5437 362.053 35.2028 361.825 34.7482C361.598 34.2901 361.485 33.7131 361.485 33.017V27.8182H362.742V32.9318C362.742 33.5284 362.909 34.0043 363.242 34.3594C363.58 34.7145 364.009 34.892 364.531 34.892C364.844 34.892 365.162 34.8121 365.485 34.6523C365.812 34.4925 366.085 34.2475 366.305 33.9173C366.529 33.587 366.641 33.1662 366.641 32.6548ZM373.524 36.1705C372.786 36.1705 372.138 35.9947 371.58 35.6431C371.026 35.2915 370.593 34.7997 370.28 34.1676C369.971 33.5355 369.817 32.7969 369.817 31.9517C369.817 31.0994 369.971 30.3555 370.28 29.7198C370.593 29.0842 371.026 28.5906 371.58 28.239C372.138 27.8874 372.786 27.7116 373.524 27.7116C374.263 27.7116 374.909 27.8874 375.463 28.239C376.021 28.5906 376.454 29.0842 376.763 29.7198C377.075 30.3555 377.232 31.0994 377.232 31.9517C377.232 32.7969 377.075 33.5355 376.763 34.1676C376.454 34.7997 376.021 35.2915 375.463 35.6431C374.909 35.9947 374.263 36.1705 373.524 36.1705ZM373.524 35.0412C374.085 35.0412 374.547 34.8974 374.909 34.6097C375.271 34.3221 375.54 33.9439 375.714 33.4751C375.888 33.0064 375.975 32.4986 375.975 31.9517C375.975 31.4048 375.888 30.8952 375.714 30.4229C375.54 29.9506 375.271 29.5689 374.909 29.2777C374.547 28.9865 374.085 28.8409 373.524 28.8409C372.963 28.8409 372.502 28.9865 372.139 29.2777C371.777 29.5689 371.509 29.9506 371.335 30.4229C371.161 30.8952 371.074 31.4048 371.074 31.9517C371.074 32.4986 371.161 33.0064 371.335 33.4751C371.509 33.9439 371.777 34.3221 372.139 34.6097C372.502 34.8974 372.963 35.0412 373.524 35.0412ZM384.307 32.6548V27.8182H385.564V36H384.307V34.6151H384.222C384.03 35.0305 383.732 35.3839 383.327 35.6751C382.922 35.9627 382.411 36.1065 381.793 36.1065C381.281 36.1065 380.827 35.9947 380.429 35.771C380.031 35.5437 379.719 35.2028 379.491 34.7482C379.264 34.2901 379.151 33.7131 379.151 33.017V27.8182H380.408V32.9318C380.408 33.5284 380.575 34.0043 380.908 34.3594C381.246 34.7145 381.675 34.892 382.197 34.892C382.51 34.892 382.828 34.8121 383.151 34.6523C383.478 34.4925 383.751 34.2475 383.971 33.9173C384.195 33.587 384.307 33.1662 384.307 32.6548ZM393.662 29.6506L392.533 29.9702C392.462 29.782 392.357 29.5991 392.218 29.4215C392.083 29.2404 391.899 29.0913 391.664 28.9741C391.43 28.8569 391.13 28.7983 390.764 28.7983C390.263 28.7983 389.846 28.9137 389.512 29.1445C389.182 29.3718 389.017 29.6612 389.017 30.0128C389.017 30.3253 389.131 30.5721 389.358 30.7532C389.585 30.9343 389.94 31.0852 390.423 31.206L391.638 31.5043C392.369 31.6818 392.914 31.9535 393.273 32.3192C393.632 32.6815 393.811 33.1484 393.811 33.7202C393.811 34.1889 393.676 34.608 393.406 34.9773C393.14 35.3466 392.767 35.6378 392.288 35.8509C391.808 36.0639 391.251 36.1705 390.615 36.1705C389.78 36.1705 389.09 35.9893 388.543 35.6271C387.996 35.2649 387.65 34.7358 387.504 34.0398L388.697 33.7415C388.811 34.1818 389.026 34.5121 389.342 34.7322C389.661 34.9524 390.079 35.0625 390.594 35.0625C391.18 35.0625 391.645 34.9382 391.989 34.6896C392.337 34.4375 392.511 34.1357 392.511 33.7841C392.511 33.5 392.412 33.2621 392.213 33.0703C392.014 32.875 391.709 32.7294 391.297 32.6335L389.933 32.3139C389.184 32.1364 388.633 31.8612 388.282 31.4883C387.934 31.1119 387.76 30.6413 387.76 30.0767C387.76 29.6151 387.889 29.2067 388.149 28.8516C388.411 28.4964 388.768 28.2177 389.219 28.0153C389.674 27.8129 390.189 27.7116 390.764 27.7116C391.574 27.7116 392.209 27.8892 392.671 28.2443C393.136 28.5994 393.467 29.0682 393.662 29.6506Z" fill="#6E3DC1"/>
<line x1="644" y1="93" x2="428" y2="93" stroke="white" stroke-width="2"/>
<path d="M423.929 86.3045C423.693 85.5996 423.795 84.8934 424.235 84.1859C424.675 83.4769 425.181 83.1998 425.755 83.3546L432.319 85.1263C432.893 85.2811 433.183 85.7731 433.189 86.6023C433.196 87.4304 432.913 88.088 432.342 88.575L427.648 92.5737C427.467 92.7275 427.289 92.8313 427.114 92.8853C426.939 92.9393 426.766 92.9433 426.596 92.8974C426.426 92.8516 426.28 92.7615 426.158 92.6273C426.036 92.493 425.938 92.3146 425.863 92.092L423.929 86.3045Z" fill="#6E3DC1"/>
<line x1="413" y1="93" x2="298" y2="93" stroke="white" stroke-width="2"/>
<path d="M293.791 86.4315C293.53 85.7357 293.606 85.0262 294.019 84.303C294.432 83.5782 294.928 83.2826 295.507 83.4161L302.133 84.944C302.712 85.0775 303.02 85.5584 303.056 86.3868C303.094 87.2142 302.836 87.8817 302.282 88.3895L297.74 92.5589C297.565 92.7192 297.391 92.8296 297.218 92.89C297.045 92.9504 296.872 92.9609 296.701 92.9213C296.529 92.8817 296.38 92.7971 296.253 92.6675C296.126 92.5379 296.021 92.3632 295.938 92.1435L293.791 86.4315Z" fill="#6E3DC1"/>
<rect x="380.5" y="151.5" width="84" height="84" rx="17.5" fill="white" stroke="#6E3DC1"/>
<path d="M408.752 181.818C408.688 181.278 408.429 180.859 407.974 180.561C407.52 180.263 406.962 180.114 406.301 180.114C405.819 180.114 405.396 180.192 405.034 180.348C404.675 180.504 404.395 180.719 404.192 180.993C403.993 181.266 403.894 181.577 403.894 181.925C403.894 182.216 403.963 182.466 404.102 182.676C404.244 182.882 404.425 183.054 404.645 183.192C404.865 183.327 405.096 183.439 405.337 183.528C405.579 183.613 405.801 183.683 406.003 183.736L407.111 184.034C407.395 184.109 407.711 184.212 408.059 184.343C408.411 184.474 408.746 184.654 409.066 184.881C409.389 185.105 409.656 185.392 409.865 185.744C410.075 186.096 410.179 186.527 410.179 187.038C410.179 187.628 410.025 188.161 409.716 188.636C409.411 189.112 408.963 189.49 408.374 189.771C407.788 190.051 407.076 190.192 406.238 190.192C405.456 190.192 404.78 190.066 404.208 189.814C403.64 189.561 403.192 189.21 402.866 188.759C402.543 188.308 402.36 187.784 402.317 187.188H403.681C403.716 187.599 403.855 187.94 404.096 188.21C404.341 188.477 404.65 188.675 405.023 188.807C405.4 188.935 405.804 188.999 406.238 188.999C406.742 188.999 407.195 188.917 407.596 188.754C407.997 188.587 408.315 188.356 408.549 188.061C408.784 187.763 408.901 187.415 408.901 187.017C408.901 186.655 408.8 186.36 408.597 186.133C408.395 185.906 408.129 185.721 407.798 185.579C407.468 185.437 407.111 185.312 406.728 185.206L405.385 184.822C404.533 184.577 403.858 184.228 403.361 183.773C402.864 183.319 402.615 182.724 402.615 181.989C402.615 181.378 402.781 180.845 403.111 180.391C403.445 179.933 403.892 179.577 404.453 179.325C405.018 179.07 405.648 178.942 406.344 178.942C407.047 178.942 407.672 179.068 408.219 179.32C408.766 179.569 409.199 179.909 409.519 180.343C409.842 180.776 410.012 181.268 410.03 181.818H408.752ZM412.181 193.068V181.818H413.395V183.118H413.544C413.637 182.976 413.765 182.795 413.928 182.575C414.095 182.351 414.333 182.152 414.642 181.978C414.954 181.8 415.377 181.712 415.91 181.712C416.598 181.712 417.206 181.884 417.731 182.228C418.257 182.573 418.667 183.061 418.962 183.693C419.256 184.325 419.404 185.071 419.404 185.93C419.404 186.797 419.256 187.548 418.962 188.184C418.667 188.816 418.259 189.306 417.737 189.654C417.215 189.998 416.613 190.17 415.931 190.17C415.405 190.17 414.984 190.083 414.668 189.909C414.352 189.732 414.109 189.531 413.939 189.308C413.768 189.08 413.637 188.892 413.544 188.743H413.438V193.068H412.181ZM413.417 185.909C413.417 186.527 413.507 187.072 413.688 187.544C413.869 188.013 414.134 188.381 414.482 188.647C414.83 188.91 415.256 189.041 415.76 189.041C416.286 189.041 416.725 188.903 417.076 188.626C417.431 188.345 417.698 187.969 417.875 187.496C418.056 187.021 418.147 186.491 418.147 185.909C418.147 185.334 418.058 184.815 417.88 184.354C417.706 183.888 417.442 183.521 417.087 183.251C416.735 182.978 416.293 182.841 415.76 182.841C415.249 182.841 414.819 182.971 414.471 183.23C414.123 183.485 413.861 183.844 413.683 184.306C413.505 184.764 413.417 185.298 413.417 185.909ZM421.321 190V181.818H422.536V183.054H422.621C422.77 182.649 423.04 182.321 423.431 182.069C423.821 181.816 424.262 181.69 424.752 181.69C424.844 181.69 424.96 181.692 425.098 181.696C425.237 181.699 425.341 181.705 425.412 181.712V182.99C425.37 182.979 425.272 182.963 425.119 182.942C424.97 182.917 424.812 182.905 424.645 182.905C424.248 182.905 423.892 182.988 423.58 183.155C423.271 183.319 423.026 183.546 422.845 183.837C422.667 184.125 422.579 184.453 422.579 184.822V190H421.321ZM426.903 190V181.818H428.16V190H426.903ZM427.542 180.455C427.297 180.455 427.085 180.371 426.908 180.204C426.734 180.037 426.647 179.837 426.647 179.602C426.647 179.368 426.734 179.167 426.908 179C427.085 178.833 427.297 178.75 427.542 178.75C427.787 178.75 427.996 178.833 428.17 179C428.348 179.167 428.437 179.368 428.437 179.602C428.437 179.837 428.348 180.037 428.17 180.204C427.996 180.371 427.787 180.455 427.542 180.455ZM431.719 185.078V190H430.462V181.818H431.677V183.097H431.783C431.975 182.681 432.266 182.347 432.657 182.095C433.047 181.839 433.552 181.712 434.169 181.712C434.723 181.712 435.208 181.825 435.624 182.053C436.039 182.276 436.362 182.617 436.593 183.075C436.824 183.53 436.939 184.105 436.939 184.801V190H435.682V184.886C435.682 184.244 435.515 183.743 435.182 183.384C434.848 183.022 434.39 182.841 433.807 182.841C433.406 182.841 433.047 182.928 432.731 183.102C432.419 183.276 432.172 183.53 431.991 183.864C431.81 184.197 431.719 184.602 431.719 185.078ZM442.795 181.818V182.884H438.555V181.818H442.795ZM439.79 179.858H441.048V187.656C441.048 188.011 441.099 188.278 441.202 188.455C441.309 188.629 441.444 188.746 441.607 188.807C441.774 188.864 441.95 188.892 442.134 188.892C442.273 188.892 442.386 188.885 442.475 188.871C442.564 188.853 442.635 188.839 442.688 188.828L442.944 189.957C442.859 189.989 442.74 190.021 442.587 190.053C442.434 190.089 442.241 190.107 442.006 190.107C441.651 190.107 441.303 190.03 440.962 189.877C440.625 189.725 440.344 189.492 440.121 189.18C439.901 188.867 439.79 188.473 439.79 187.997V179.858ZM393.563 211.068V199.818H394.777V201.118H394.926C395.019 200.976 395.146 200.795 395.31 200.575C395.477 200.351 395.715 200.152 396.024 199.978C396.336 199.8 396.759 199.712 397.291 199.712C397.98 199.712 398.588 199.884 399.113 200.228C399.639 200.573 400.049 201.061 400.344 201.693C400.638 202.325 400.786 203.071 400.786 203.93C400.786 204.797 400.638 205.548 400.344 206.184C400.049 206.816 399.64 207.306 399.118 207.654C398.596 207.998 397.994 208.17 397.313 208.17C396.787 208.17 396.366 208.083 396.05 207.909C395.734 207.732 395.491 207.531 395.32 207.308C395.15 207.08 395.019 206.892 394.926 206.743H394.82V211.068H393.563ZM394.798 203.909C394.798 204.527 394.889 205.072 395.07 205.544C395.251 206.013 395.516 206.381 395.864 206.647C396.212 206.91 396.638 207.041 397.142 207.041C397.668 207.041 398.106 206.903 398.458 206.626C398.813 206.345 399.079 205.969 399.257 205.496C399.438 205.021 399.529 204.491 399.529 203.909C399.529 203.334 399.44 202.815 399.262 202.354C399.088 201.888 398.824 201.521 398.469 201.251C398.117 200.978 397.675 200.841 397.142 200.841C396.631 200.841 396.201 200.971 395.853 201.23C395.505 201.485 395.242 201.844 395.065 202.306C394.887 202.764 394.798 203.298 394.798 203.909ZM403.96 197.091V208H402.703V197.091H403.96ZM408.671 208.192C408.152 208.192 407.682 208.094 407.259 207.899C406.836 207.7 406.501 207.414 406.252 207.041C406.004 206.665 405.879 206.21 405.879 205.678C405.879 205.209 405.972 204.829 406.156 204.538C406.341 204.243 406.588 204.012 406.897 203.845C407.206 203.678 407.547 203.554 407.919 203.472C408.296 203.387 408.674 203.32 409.054 203.27C409.551 203.206 409.954 203.158 410.263 203.126C410.576 203.091 410.803 203.032 410.945 202.95C411.091 202.869 411.163 202.727 411.163 202.524V202.482C411.163 201.956 411.02 201.548 410.732 201.256C410.448 200.965 410.016 200.82 409.438 200.82C408.837 200.82 408.367 200.951 408.026 201.214C407.685 201.477 407.445 201.757 407.307 202.055L406.114 201.629C406.327 201.132 406.611 200.745 406.966 200.468C407.325 200.187 407.715 199.992 408.138 199.882C408.564 199.768 408.983 199.712 409.395 199.712C409.658 199.712 409.96 199.744 410.301 199.808C410.645 199.868 410.977 199.994 411.297 200.186C411.62 200.377 411.888 200.667 412.101 201.054C412.314 201.441 412.421 201.96 412.421 202.609V208H411.163V206.892H411.1C411.014 207.07 410.872 207.26 410.673 207.462C410.475 207.664 410.21 207.837 409.88 207.979C409.549 208.121 409.146 208.192 408.671 208.192ZM408.862 207.062C409.359 207.062 409.778 206.965 410.119 206.77C410.464 206.574 410.723 206.322 410.897 206.013C411.075 205.704 411.163 205.379 411.163 205.038V203.888C411.11 203.952 410.993 204.01 410.812 204.064C410.634 204.113 410.428 204.158 410.194 204.197C409.963 204.232 409.738 204.264 409.517 204.293C409.301 204.317 409.125 204.339 408.99 204.357C408.663 204.399 408.358 204.468 408.074 204.564C407.793 204.657 407.566 204.797 407.392 204.985C407.222 205.17 407.136 205.422 407.136 205.741C407.136 206.178 407.298 206.509 407.621 206.732C407.948 206.952 408.362 207.062 408.862 207.062ZM415.972 203.078V208H414.715V199.818H415.93V201.097H416.036C416.228 200.681 416.519 200.347 416.91 200.095C417.3 199.839 417.805 199.712 418.422 199.712C418.976 199.712 419.461 199.825 419.877 200.053C420.292 200.276 420.615 200.617 420.846 201.075C421.077 201.53 421.192 202.105 421.192 202.801V208H419.935V202.886C419.935 202.244 419.768 201.743 419.434 201.384C419.101 201.022 418.643 200.841 418.06 200.841C417.659 200.841 417.3 200.928 416.984 201.102C416.672 201.276 416.425 201.53 416.244 201.864C416.063 202.197 415.972 202.602 415.972 203.078ZM424.747 203.078V208H423.489V199.818H424.704V201.097H424.81C425.002 200.681 425.293 200.347 425.684 200.095C426.075 199.839 426.579 199.712 427.197 199.712C427.751 199.712 428.236 199.825 428.651 200.053C429.066 200.276 429.39 200.617 429.62 201.075C429.851 201.53 429.967 202.105 429.967 202.801V208H428.71V202.886C428.71 202.244 428.543 201.743 428.209 201.384C427.875 201.022 427.417 200.841 426.835 200.841C426.433 200.841 426.075 200.928 425.759 201.102C425.446 201.276 425.199 201.53 425.018 201.864C424.837 202.197 424.747 202.602 424.747 203.078ZM432.264 208V199.818H433.521V208H432.264ZM432.903 198.455C432.658 198.455 432.447 198.371 432.269 198.204C432.095 198.037 432.008 197.837 432.008 197.602C432.008 197.368 432.095 197.167 432.269 197C432.447 196.833 432.658 196.75 432.903 196.75C433.148 196.75 433.358 196.833 433.532 197C433.709 197.167 433.798 197.368 433.798 197.602C433.798 197.837 433.709 198.037 433.532 198.204C433.358 198.371 433.148 198.455 432.903 198.455ZM437.081 203.078V208H435.823V199.818H437.038V201.097H437.144C437.336 200.681 437.627 200.347 438.018 200.095C438.409 199.839 438.913 199.712 439.531 199.712C440.085 199.712 440.57 199.825 440.985 200.053C441.4 200.276 441.724 200.617 441.954 201.075C442.185 201.53 442.301 202.105 442.301 202.801V208H441.044V202.886C441.044 202.244 440.877 201.743 440.543 201.384C440.209 201.022 439.751 200.841 439.169 200.841C438.767 200.841 438.409 200.928 438.093 201.102C437.78 201.276 437.533 201.53 437.352 201.864C437.171 202.197 437.081 202.602 437.081 203.078ZM447.9 211.239C447.293 211.239 446.771 211.161 446.334 211.004C445.898 210.852 445.534 210.649 445.242 210.397C444.955 210.148 444.726 209.882 444.555 209.598L445.557 208.895C445.67 209.044 445.814 209.214 445.988 209.406C446.162 209.602 446.4 209.77 446.702 209.912C447.007 210.058 447.407 210.131 447.9 210.131C448.561 210.131 449.106 209.971 449.536 209.651C449.965 209.332 450.18 208.831 450.18 208.149V206.487H450.074C449.981 206.636 449.85 206.821 449.68 207.041C449.513 207.258 449.271 207.451 448.955 207.622C448.643 207.789 448.22 207.872 447.687 207.872C447.027 207.872 446.434 207.716 445.908 207.403C445.386 207.091 444.972 206.636 444.667 206.04C444.365 205.443 444.214 204.719 444.214 203.866C444.214 203.028 444.362 202.299 444.656 201.677C444.951 201.052 445.361 200.569 445.887 200.228C446.412 199.884 447.02 199.712 447.709 199.712C448.241 199.712 448.664 199.8 448.976 199.978C449.292 200.152 449.534 200.351 449.701 200.575C449.871 200.795 450.003 200.976 450.095 201.118H450.223V199.818H451.437V208.234C451.437 208.938 451.278 209.509 450.958 209.95C450.642 210.393 450.216 210.718 449.68 210.924C449.147 211.134 448.554 211.239 447.9 211.239ZM447.858 206.743C448.362 206.743 448.788 206.627 449.136 206.397C449.484 206.166 449.749 205.834 449.93 205.401C450.111 204.967 450.202 204.449 450.202 203.845C450.202 203.256 450.113 202.735 449.935 202.284C449.758 201.833 449.495 201.48 449.147 201.224C448.799 200.969 448.369 200.841 447.858 200.841C447.325 200.841 446.881 200.976 446.526 201.246C446.175 201.516 445.91 201.878 445.732 202.332C445.558 202.787 445.471 203.291 445.471 203.845C445.471 204.413 445.56 204.916 445.738 205.353C445.919 205.786 446.185 206.127 446.537 206.375C446.892 206.62 447.332 206.743 447.858 206.743Z" fill="black"/>
<path d="M495.523 179.091V190H494.244L488.3 181.435H488.193V190H486.872V179.091H488.151L494.117 187.678H494.223V179.091H495.523ZM501.32 190.17C500.581 190.17 499.933 189.995 499.375 189.643C498.821 189.292 498.388 188.8 498.076 188.168C497.767 187.536 497.612 186.797 497.612 185.952C497.612 185.099 497.767 184.355 498.076 183.72C498.388 183.084 498.821 182.591 499.375 182.239C499.933 181.887 500.581 181.712 501.32 181.712C502.058 181.712 502.705 181.887 503.259 182.239C503.816 182.591 504.249 183.084 504.558 183.72C504.871 184.355 505.027 185.099 505.027 185.952C505.027 186.797 504.871 187.536 504.558 188.168C504.249 188.8 503.816 189.292 503.259 189.643C502.705 189.995 502.058 190.17 501.32 190.17ZM501.32 189.041C501.881 189.041 502.342 188.897 502.705 188.61C503.067 188.322 503.335 187.944 503.509 187.475C503.683 187.006 503.77 186.499 503.77 185.952C503.77 185.405 503.683 184.895 503.509 184.423C503.335 183.951 503.067 183.569 502.705 183.278C502.342 182.987 501.881 182.841 501.32 182.841C500.759 182.841 500.297 182.987 499.935 183.278C499.572 183.569 499.304 183.951 499.13 184.423C498.956 184.895 498.869 185.405 498.869 185.952C498.869 186.499 498.956 187.006 499.13 187.475C499.304 187.944 499.572 188.322 499.935 188.61C500.297 188.897 500.759 189.041 501.32 189.041ZM506.946 190V181.818H508.16V183.054H508.246C508.395 182.649 508.665 182.321 509.055 182.069C509.446 181.816 509.886 181.69 510.376 181.69C510.469 181.69 510.584 181.692 510.723 181.696C510.861 181.699 510.966 181.705 511.037 181.712V182.99C510.994 182.979 510.897 182.963 510.744 182.942C510.595 182.917 510.437 182.905 510.27 182.905C509.872 182.905 509.517 182.988 509.205 183.155C508.896 183.319 508.651 183.546 508.469 183.837C508.292 184.125 508.203 184.453 508.203 184.822V190H506.946ZM512.527 190V181.818H513.742V183.097H513.848C514.019 182.66 514.294 182.321 514.674 182.079C515.054 181.834 515.51 181.712 516.043 181.712C516.582 181.712 517.032 181.834 517.39 182.079C517.753 182.321 518.035 182.66 518.237 183.097H518.322C518.532 182.674 518.846 182.338 519.265 182.09C519.684 181.838 520.187 181.712 520.773 181.712C521.504 181.712 522.103 181.941 522.568 182.399C523.033 182.853 523.266 183.562 523.266 184.524V190H522.009V184.524C522.009 183.92 521.843 183.489 521.513 183.23C521.183 182.971 520.794 182.841 520.347 182.841C519.771 182.841 519.326 183.015 519.01 183.363C518.694 183.707 518.536 184.144 518.536 184.673V190H517.257V184.396C517.257 183.931 517.106 183.556 516.804 183.272C516.503 182.985 516.114 182.841 515.638 182.841C515.311 182.841 515.006 182.928 514.722 183.102C514.441 183.276 514.214 183.517 514.04 183.826C513.869 184.132 513.784 184.485 513.784 184.886V190H512.527ZM527.972 190.192C527.453 190.192 526.983 190.094 526.56 189.899C526.138 189.7 525.802 189.414 525.553 189.041C525.305 188.665 525.181 188.21 525.181 187.678C525.181 187.209 525.273 186.829 525.458 186.538C525.642 186.243 525.889 186.012 526.198 185.845C526.507 185.678 526.848 185.554 527.221 185.472C527.597 185.387 527.975 185.32 528.355 185.27C528.852 185.206 529.256 185.158 529.564 185.126C529.877 185.091 530.104 185.032 530.246 184.95C530.392 184.869 530.465 184.727 530.465 184.524V184.482C530.465 183.956 530.321 183.548 530.033 183.256C529.749 182.965 529.318 182.82 528.739 182.82C528.139 182.82 527.668 182.951 527.327 183.214C526.986 183.477 526.747 183.757 526.608 184.055L525.415 183.629C525.628 183.132 525.912 182.745 526.267 182.468C526.626 182.187 527.017 181.992 527.439 181.882C527.865 181.768 528.284 181.712 528.696 181.712C528.959 181.712 529.261 181.744 529.602 181.808C529.946 181.868 530.278 181.994 530.598 182.186C530.921 182.377 531.189 182.667 531.402 183.054C531.615 183.441 531.722 183.96 531.722 184.609V190H530.465V188.892H530.401C530.316 189.07 530.174 189.26 529.975 189.462C529.776 189.664 529.511 189.837 529.181 189.979C528.851 190.121 528.448 190.192 527.972 190.192ZM528.164 189.062C528.661 189.062 529.08 188.965 529.421 188.77C529.765 188.574 530.024 188.322 530.198 188.013C530.376 187.704 530.465 187.379 530.465 187.038V185.888C530.411 185.952 530.294 186.01 530.113 186.064C529.936 186.113 529.73 186.158 529.495 186.197C529.264 186.232 529.039 186.264 528.819 186.293C528.602 186.317 528.426 186.339 528.291 186.357C527.965 186.399 527.659 186.468 527.375 186.564C527.095 186.657 526.867 186.797 526.693 186.985C526.523 187.17 526.438 187.422 526.438 187.741C526.438 188.178 526.599 188.509 526.922 188.732C527.249 188.952 527.663 189.062 528.164 189.062ZM535.273 179.091V190H534.016V179.091H535.273ZM538.386 193.068C538.172 193.068 537.982 193.05 537.816 193.015C537.649 192.983 537.533 192.951 537.469 192.919L537.789 191.811C538.094 191.889 538.364 191.918 538.599 191.896C538.833 191.875 539.041 191.77 539.222 191.582C539.406 191.397 539.575 191.097 539.728 190.682L539.962 190.043L536.937 181.818H538.3L540.559 188.338H540.644L542.903 181.818H544.266L540.793 191.193C540.637 191.616 540.443 191.966 540.213 192.243C539.982 192.523 539.714 192.731 539.408 192.866C539.106 193.001 538.765 193.068 538.386 193.068ZM553.468 190.17C552.729 190.17 552.081 189.995 551.524 189.643C550.97 189.292 550.537 188.8 550.224 188.168C549.915 187.536 549.761 186.797 549.761 185.952C549.761 185.099 549.915 184.355 550.224 183.72C550.537 183.084 550.97 182.591 551.524 182.239C552.081 181.887 552.729 181.712 553.468 181.712C554.207 181.712 554.853 181.887 555.407 182.239C555.965 182.591 556.398 183.084 556.707 183.72C557.019 184.355 557.175 185.099 557.175 185.952C557.175 186.797 557.019 187.536 556.707 188.168C556.398 188.8 555.965 189.292 555.407 189.643C554.853 189.995 554.207 190.17 553.468 190.17ZM553.468 189.041C554.029 189.041 554.491 188.897 554.853 188.61C555.215 188.322 555.483 187.944 555.657 187.475C555.831 187.006 555.918 186.499 555.918 185.952C555.918 185.405 555.831 184.895 555.657 184.423C555.483 183.951 555.215 183.569 554.853 183.278C554.491 182.987 554.029 182.841 553.468 182.841C552.907 182.841 552.445 182.987 552.083 183.278C551.721 183.569 551.453 183.951 551.279 184.423C551.105 184.895 551.018 185.405 551.018 185.952C551.018 186.499 551.105 187.006 551.279 187.475C551.453 187.944 551.721 188.322 552.083 188.61C552.445 188.897 552.907 189.041 553.468 189.041ZM560.352 185.078V190H559.094V181.818H560.309V183.097H560.415C560.607 182.681 560.898 182.347 561.289 182.095C561.68 181.839 562.184 181.712 562.802 181.712C563.356 181.712 563.841 181.825 564.256 182.053C564.671 182.276 564.995 182.617 565.225 183.075C565.456 183.53 565.572 184.105 565.572 184.801V190H564.315V184.886C564.315 184.244 564.148 183.743 563.814 183.384C563.48 183.022 563.022 182.841 562.44 182.841C562.038 182.841 561.68 182.928 561.364 183.102C561.051 183.276 560.804 183.53 560.623 183.864C560.442 184.197 560.352 184.602 560.352 185.078ZM571.299 190.17C570.511 190.17 569.831 189.996 569.259 189.648C568.691 189.297 568.252 188.807 567.943 188.178C567.638 187.546 567.485 186.811 567.485 185.973C567.485 185.135 567.638 184.396 567.943 183.757C568.252 183.114 568.682 182.614 569.232 182.255C569.786 181.893 570.433 181.712 571.171 181.712C571.598 181.712 572.018 181.783 572.434 181.925C572.849 182.067 573.227 182.298 573.568 182.617C573.909 182.933 574.181 183.352 574.383 183.874C574.586 184.396 574.687 185.039 574.687 185.803V186.335H568.38V185.249H573.409C573.409 184.787 573.316 184.375 573.132 184.013C572.951 183.651 572.691 183.365 572.354 183.155C572.02 182.946 571.626 182.841 571.171 182.841C570.671 182.841 570.237 182.965 569.872 183.214C569.509 183.459 569.231 183.778 569.035 184.173C568.84 184.567 568.742 184.989 568.742 185.44V186.165C568.742 186.783 568.849 187.306 569.062 187.736C569.279 188.162 569.579 188.487 569.962 188.711C570.346 188.931 570.791 189.041 571.299 189.041C571.629 189.041 571.928 188.995 572.194 188.903C572.464 188.807 572.697 188.665 572.892 188.477C573.087 188.285 573.238 188.047 573.345 187.763L574.559 188.104C574.431 188.516 574.216 188.878 573.915 189.19C573.613 189.499 573.24 189.741 572.796 189.915C572.352 190.085 571.853 190.17 571.299 190.17ZM487.653 208.17C486.914 208.17 486.266 207.995 485.708 207.643C485.154 207.292 484.721 206.8 484.409 206.168C484.1 205.536 483.945 204.797 483.945 203.952C483.945 203.099 484.1 202.355 484.409 201.72C484.721 201.084 485.154 200.591 485.708 200.239C486.266 199.887 486.914 199.712 487.653 199.712C488.391 199.712 489.038 199.887 489.592 200.239C490.149 200.591 490.582 201.084 490.891 201.72C491.204 202.355 491.36 203.099 491.36 203.952C491.36 204.797 491.204 205.536 490.891 206.168C490.582 206.8 490.149 207.292 489.592 207.643C489.038 207.995 488.391 208.17 487.653 208.17ZM487.653 207.041C488.214 207.041 488.675 206.897 489.038 206.61C489.4 206.322 489.668 205.944 489.842 205.475C490.016 205.006 490.103 204.499 490.103 203.952C490.103 203.405 490.016 202.895 489.842 202.423C489.668 201.951 489.4 201.569 489.038 201.278C488.675 200.987 488.214 200.841 487.653 200.841C487.092 200.841 486.63 200.987 486.268 201.278C485.905 201.569 485.637 201.951 485.463 202.423C485.289 202.895 485.202 203.405 485.202 203.952C485.202 204.499 485.289 205.006 485.463 205.475C485.637 205.944 485.905 206.322 486.268 206.61C486.63 206.897 487.092 207.041 487.653 207.041ZM493.279 208V199.818H494.493V201.054H494.579C494.728 200.649 494.998 200.321 495.388 200.069C495.779 199.816 496.219 199.69 496.709 199.69C496.802 199.69 496.917 199.692 497.056 199.696C497.194 199.699 497.299 199.705 497.37 199.712V200.99C497.327 200.979 497.23 200.963 497.077 200.942C496.928 200.917 496.77 200.905 496.603 200.905C496.205 200.905 495.85 200.988 495.538 201.155C495.229 201.319 494.984 201.546 494.802 201.837C494.625 202.125 494.536 202.453 494.536 202.822V208H493.279ZM506.637 199.818V200.884H502.397V199.818H506.637ZM503.633 197.858H504.89V205.656C504.89 206.011 504.941 206.278 505.044 206.455C505.151 206.629 505.286 206.746 505.449 206.807C505.616 206.864 505.792 206.892 505.977 206.892C506.115 206.892 506.229 206.885 506.317 206.871C506.406 206.853 506.477 206.839 506.53 206.828L506.786 207.957C506.701 207.989 506.582 208.021 506.429 208.053C506.277 208.089 506.083 208.107 505.849 208.107C505.494 208.107 505.146 208.03 504.805 207.877C504.467 207.725 504.187 207.492 503.963 207.18C503.743 206.867 503.633 206.473 503.633 205.997V197.858ZM510.382 208L507.889 199.818H509.21L510.978 206.082H511.064L512.811 199.818H514.153L515.879 206.061H515.964L517.733 199.818H519.054L516.561 208H515.325L513.535 201.714H513.407L511.617 208H510.382ZM523.761 208.17C523.022 208.17 522.374 207.995 521.817 207.643C521.263 207.292 520.83 206.8 520.517 206.168C520.208 205.536 520.054 204.797 520.054 203.952C520.054 203.099 520.208 202.355 520.517 201.72C520.83 201.084 521.263 200.591 521.817 200.239C522.374 199.887 523.022 199.712 523.761 199.712C524.5 199.712 525.146 199.887 525.7 200.239C526.258 200.591 526.691 201.084 527 201.72C527.312 202.355 527.468 203.099 527.468 203.952C527.468 204.797 527.312 205.536 527 206.168C526.691 206.8 526.258 207.292 525.7 207.643C525.146 207.995 524.5 208.17 523.761 208.17ZM523.761 207.041C524.322 207.041 524.784 206.897 525.146 206.61C525.508 206.322 525.776 205.944 525.95 205.475C526.124 205.006 526.211 204.499 526.211 203.952C526.211 203.405 526.124 202.895 525.95 202.423C525.776 201.951 525.508 201.569 525.146 201.278C524.784 200.987 524.322 200.841 523.761 200.841C523.2 200.841 522.738 200.987 522.376 201.278C522.014 201.569 521.746 201.951 521.572 202.423C521.398 202.895 521.311 203.405 521.311 203.952C521.311 204.499 521.398 205.006 521.572 205.475C521.746 205.944 522.014 206.322 522.376 206.61C522.738 206.897 523.2 207.041 523.761 207.041ZM535.46 208L532.967 199.818H534.288L536.056 206.082H536.142L537.889 199.818H539.231L540.957 206.061H541.042L542.811 199.818H544.132L541.639 208H540.403L538.613 201.714H538.485L536.696 208H535.46ZM548.946 208.17C548.157 208.17 547.477 207.996 546.906 207.648C546.337 207.297 545.899 206.807 545.59 206.178C545.284 205.546 545.132 204.811 545.132 203.973C545.132 203.135 545.284 202.396 545.59 201.757C545.899 201.114 546.329 200.614 546.879 200.255C547.433 199.893 548.079 199.712 548.818 199.712C549.244 199.712 549.665 199.783 550.08 199.925C550.496 200.067 550.874 200.298 551.215 200.617C551.556 200.933 551.827 201.352 552.03 201.874C552.232 202.396 552.333 203.039 552.333 203.803V204.335H546.027V203.249H551.055C551.055 202.787 550.963 202.375 550.778 202.013C550.597 201.651 550.338 201.365 550 201.155C549.667 200.946 549.272 200.841 548.818 200.841C548.317 200.841 547.884 200.965 547.518 201.214C547.156 201.459 546.877 201.778 546.682 202.173C546.487 202.567 546.389 202.989 546.389 203.44V204.165C546.389 204.783 546.495 205.306 546.708 205.736C546.925 206.162 547.225 206.487 547.609 206.711C547.992 206.931 548.438 207.041 548.946 207.041C549.276 207.041 549.574 206.995 549.841 206.903C550.11 206.807 550.343 206.665 550.538 206.477C550.734 206.285 550.885 206.047 550.991 205.763L552.206 206.104C552.078 206.516 551.863 206.878 551.561 207.19C551.259 207.499 550.886 207.741 550.443 207.915C549.999 208.085 549.5 208.17 548.946 208.17ZM557.676 208.17C556.888 208.17 556.208 207.996 555.636 207.648C555.068 207.297 554.629 206.807 554.32 206.178C554.015 205.546 553.862 204.811 553.862 203.973C553.862 203.135 554.015 202.396 554.32 201.757C554.629 201.114 555.059 200.614 555.609 200.255C556.163 199.893 556.81 199.712 557.548 199.712C557.974 199.712 558.395 199.783 558.811 199.925C559.226 200.067 559.604 200.298 559.945 200.617C560.286 200.933 560.558 201.352 560.76 201.874C560.963 202.396 561.064 203.039 561.064 203.803V204.335H554.757V203.249H559.786C559.786 202.787 559.693 202.375 559.509 202.013C559.327 201.651 559.068 201.365 558.731 201.155C558.397 200.946 558.003 200.841 557.548 200.841C557.048 200.841 556.614 200.965 556.249 201.214C555.886 201.459 555.608 201.778 555.412 202.173C555.217 202.567 555.119 202.989 555.119 203.44V204.165C555.119 204.783 555.226 205.306 555.439 205.736C555.656 206.162 555.956 206.487 556.339 206.711C556.723 206.931 557.168 207.041 557.676 207.041C558.006 207.041 558.305 206.995 558.571 206.903C558.841 206.807 559.074 206.665 559.269 206.477C559.464 206.285 559.615 206.047 559.722 205.763L560.936 206.104C560.808 206.516 560.593 206.878 560.292 207.19C559.99 207.499 559.617 207.741 559.173 207.915C558.729 208.085 558.23 208.17 557.676 208.17ZM564.148 205.017L564.127 203.462H564.383L567.962 199.818H569.517L565.704 203.675H565.597L564.148 205.017ZM562.976 208V197.091H564.233V208H562.976ZM568.175 208L564.979 203.952L565.874 203.078L569.773 208H568.175ZM576.931 201.651L575.802 201.97C575.731 201.782 575.626 201.599 575.487 201.422C575.352 201.24 575.168 201.091 574.933 200.974C574.699 200.857 574.399 200.798 574.033 200.798C573.532 200.798 573.115 200.914 572.781 201.145C572.451 201.372 572.286 201.661 572.286 202.013C572.286 202.325 572.4 202.572 572.627 202.753C572.854 202.934 573.209 203.085 573.692 203.206L574.907 203.504C575.638 203.682 576.183 203.953 576.542 204.319C576.901 204.681 577.08 205.148 577.08 205.72C577.08 206.189 576.945 206.608 576.675 206.977C576.409 207.347 576.036 207.638 575.557 207.851C575.077 208.064 574.52 208.17 573.884 208.17C573.049 208.17 572.359 207.989 571.812 207.627C571.265 207.265 570.919 206.736 570.773 206.04L571.966 205.741C572.08 206.182 572.295 206.512 572.611 206.732C572.931 206.952 573.348 207.062 573.863 207.062C574.449 207.062 574.914 206.938 575.258 206.69C575.606 206.437 575.78 206.136 575.78 205.784C575.78 205.5 575.681 205.262 575.482 205.07C575.283 204.875 574.978 204.729 574.566 204.634L573.202 204.314C572.453 204.136 571.902 203.861 571.551 203.488C571.203 203.112 571.029 202.641 571.029 202.077C571.029 201.615 571.159 201.207 571.418 200.852C571.681 200.496 572.037 200.218 572.488 200.015C572.943 199.813 573.458 199.712 574.033 199.712C574.843 199.712 575.478 199.889 575.94 200.244C576.405 200.599 576.736 201.068 576.931 201.651Z" fill="black"/>
<line x1="422.5" y1="121" x2="422.5" y2="148" stroke="#6E3DC1" stroke-dasharray="2 2"/>
<line x1="530.5" y1="121" x2="530.5" y2="148" stroke="#6E3DC1" stroke-dasharray="2 2"/>
</svg>
