<?xml version="1.0" standalone="no"?>
<!DOCTYPE svg PUBLIC "-//W3C//DTD SVG 20010904//EN"
 "http://www.w3.org/TR/2001/REC-SVG-20010904/DTD/svg10.dtd">
<svg version="1.0" xmlns="http://www.w3.org/2000/svg"
 width="225.000000pt" height="225.000000pt" viewBox="0 0 225.000000 225.000000"
 preserveAspectRatio="xMidYMid meet">

<g transform="translate(0.000000,225.000000) scale(0.100000,-0.100000)"
fill="#ea1889" stroke="none">
<path d="M825 1406 c-60 -19 -80 -31 -204 -125 l-114 -86 -71 0 c-58 0 -77 4
-103 23 -17 12 -39 22 -48 22 -25 0 -15 -49 29 -142 82 -174 227 -268 409
-268 144 0 261 45 352 133 l53 52 44 -45 c84 -86 221 -140 353 -140 138 1 233
40 323 134 64 67 120 169 129 235 7 49 1 50 -63 16 -59 -31 -135 -34 -180 -6
-18 11 -72 49 -120 86 -132 100 -175 119 -259 119 -74 0 -133 -23 -199 -77
l-30 -24 -50 39 c-82 62 -167 80 -251 54z"/>
</g>
</svg>
