<svg viewBox="0 0 520 360" fill="none" xmlns="http://www.w3.org/2000/svg" font-family="Space Grotesk,sans-serif" role="img" aria-label="Comparación entre vibe coding sin rumbo y desarrollo guiado por specs con fases y artefactos">
  <rect width="520" height="360" fill="#06080f" rx="12"/>
  <defs>
    <filter id="s37-glow" x="-50%" y="-50%" width="200%" height="200%">
      <feDropShadow dx="0" dy="0" stdDeviation="5" flood-color="#B7CC85" flood-opacity="0.35"/>
    </filter>
    <marker id="s37-arrow-red" markerUnits="userSpaceOnUse" markerWidth="9" markerHeight="9" refX="7" refY="4.5" orient="auto">
      <path d="M0,0 L9,4.5 L0,9 Z" fill="#CB7C94"/>
    </marker>
  </defs>

  <text x="260" y="28" text-anchor="middle" font-size="10" letter-spacing="2" fill="#A1AABB">DE VIBES A SPECS</text>
  <text x="260" y="50" text-anchor="middle" font-size="16" font-weight="600" fill="#F3F6F9">Vibe coding vs specs</text>

  <line x1="260" y1="70" x2="260" y2="308" stroke="#313342" stroke-width="1"/>

  <!-- Izquierda: prompt-and-pray -->
  <text x="132" y="80" text-anchor="middle" font-size="10" letter-spacing="2" fill="#CB7C94">PROMPT-AND-PRAY</text>
  <path d="M62,96 C120,88 152,116 118,132 C84,148 68,118 100,108 C140,96 192,122 158,146 C128,167 88,152 96,174 C102,190 124,190 132,205" stroke="#CB7C94" stroke-width="2" stroke-opacity="0.75" stroke-linecap="round" marker-end="url(#s37-arrow-red)"/>
  <text x="200" y="110" font-size="12" fill="#CB7C94" fill-opacity="0.8">?</text>
  <text x="55" y="180" font-size="12" fill="#CB7C94" fill-opacity="0.8">?</text>

  <rect x="70" y="214" width="126" height="62" rx="8" fill="#1c212c" stroke="#CB7C94" stroke-opacity="0.6"/>
  <rect x="70" y="214" width="126" height="62" rx="8" fill="#CB7C94" fill-opacity="0.05"/>
  <rect x="82" y="226" width="70" height="4" rx="2" fill="#8394A3"/>
  <rect x="82" y="236" width="92" height="4" rx="2" fill="#8394A3" fill-opacity="0.7"/>
  <rect x="82" y="246" width="48" height="4" rx="2" fill="#8394A3" fill-opacity="0.7"/>
  <rect x="82" y="256" width="60" height="4" rx="2" fill="#8394A3" fill-opacity="0.5"/>
  <rect x="138" y="244" width="46" height="22" rx="4" fill="#232A36" stroke="#CB7C94" stroke-dasharray="3 3"/>
  <text x="161" y="258" text-anchor="middle" font-size="8" fill="#CB7C94">patch</text>
  <text x="132" y="298" text-anchor="middle" font-size="9" fill="#CB7C94">nadie sabe por qué</text>

  <!-- Derecha: spec-driven -->
  <text x="385" y="80" text-anchor="middle" font-size="10" letter-spacing="2" fill="#B7CC85">SPEC-DRIVEN</text>
  <g filter="url(#s37-glow)">
    <rect x="288" y="90" width="104" height="22" rx="8" fill="#1c212c" stroke="#B7CC85"/>
  </g>
  <rect x="288" y="121" width="104" height="22" rx="8" fill="#1c212c" stroke="#B7CC85" stroke-opacity="0.8"/>
  <rect x="288" y="152" width="104" height="22" rx="8" fill="#1c212c" stroke="#B7CC85" stroke-opacity="0.8"/>
  <rect x="288" y="183" width="104" height="22" rx="8" fill="#1c212c" stroke="#B7CC85" stroke-opacity="0.8"/>
  <rect x="288" y="214" width="104" height="22" rx="8" fill="#1c212c" stroke="#B7CC85" stroke-opacity="0.8"/>
  <rect x="288" y="245" width="104" height="22" rx="8" fill="#1c212c" stroke="#B7CC85" stroke-opacity="0.8"/>
  <rect x="288" y="276" width="104" height="22" rx="8" fill="#1c212c" stroke="#B7CC85" stroke-opacity="0.8"/>
  <text x="340" y="105" text-anchor="middle" font-size="10" fill="#F3F6F9">explorar</text>
  <text x="340" y="136" text-anchor="middle" font-size="10" fill="#F3F6F9">proponer</text>
  <text x="340" y="167" text-anchor="middle" font-size="10" fill="#F3F6F9">especificar</text>
  <text x="340" y="198" text-anchor="middle" font-size="10" fill="#F3F6F9">diseñar</text>
  <text x="340" y="229" text-anchor="middle" font-size="10" fill="#F3F6F9">planificar</text>
  <text x="340" y="260" text-anchor="middle" font-size="10" fill="#F3F6F9">implementar</text>
  <text x="340" y="291" text-anchor="middle" font-size="10" fill="#F3F6F9">verificar</text>
  <g stroke="#B7CC85" stroke-opacity="0.6" stroke-width="1.5">
    <line x1="340" y1="112" x2="340" y2="121"/>
    <line x1="340" y1="143" x2="340" y2="152"/>
    <line x1="340" y1="174" x2="340" y2="183"/>
    <line x1="340" y1="205" x2="340" y2="214"/>
    <line x1="340" y1="236" x2="340" y2="245"/>
    <line x1="340" y1="267" x2="340" y2="276"/>
  </g>
  <!-- Artefactos por fase -->
  <g stroke="#B7CC85" stroke-opacity="0.45" stroke-dasharray="2 3">
    <line x1="392" y1="101" x2="420" y2="101"/>
    <line x1="392" y1="132" x2="420" y2="132"/>
    <line x1="392" y1="163" x2="420" y2="163"/>
    <line x1="392" y1="194" x2="420" y2="194"/>
    <line x1="392" y1="225" x2="420" y2="225"/>
    <line x1="392" y1="256" x2="420" y2="256"/>
    <line x1="392" y1="287" x2="420" y2="287"/>
  </g>
  <g fill="#232A36" stroke="#B7CC85" stroke-opacity="0.8">
    <path d="M421,93 h8 l5,5 v11 h-13 z"/>
    <path d="M421,124 h8 l5,5 v11 h-13 z"/>
    <path d="M421,155 h8 l5,5 v11 h-13 z"/>
    <path d="M421,186 h8 l5,5 v11 h-13 z"/>
    <path d="M421,217 h8 l5,5 v11 h-13 z"/>
    <path d="M421,248 h8 l5,5 v11 h-13 z"/>
    <path d="M421,279 h8 l5,5 v11 h-13 z"/>
  </g>

  <text x="260" y="334" text-anchor="middle" font-size="11" fill="#B7CC85">cada línea tiene una spec atrás</text>
</svg>