<svg viewBox="0 0 520 360" fill="none" xmlns="http://www.w3.org/2000/svg" font-family="Space Grotesk,sans-serif" role="img" aria-label="Para llevarse: memoria de agente, configurador del stack y este deck, todo open source, con un primer paso para mañana">
  <rect width="520" height="360" fill="#06080f" rx="12"/>
  <defs>
    <filter id="s45-glow" x="-50%" y="-50%" width="200%" height="200%">
      <feDropShadow dx="0" dy="0" stdDeviation="5" flood-color="#DFBD76" flood-opacity="0.4"/>
    </filter>
  </defs>

  <text x="260" y="26" text-anchor="middle" font-size="10" letter-spacing="2" fill="#A1AABB">CIERRE DEL CURSO</text>
  <text x="260" y="48" text-anchor="middle" font-size="16" font-weight="600" fill="#F3F6F9">Para llevarse</text>

  <!-- Card 1: memoria de agente -->
  <rect x="22" y="64" width="152" height="132" rx="12" fill="#1c212c" stroke="#313342"/>
  <path d="M82 86 v28 a16 6 0 0 0 32 0 v-28" stroke="#DFBD76" stroke-width="1.5"/>
  <ellipse cx="98" cy="86" rx="16" ry="6" stroke="#DFBD76" stroke-width="1.5"/>
  <path d="M82 99 a16 6 0 0 0 32 0" stroke="#DFBD76" stroke-width="1.5" stroke-opacity="0.5"/>
  <polyline points="87 110 93 110 96 105 100 115 103 110 109 110" stroke="#DFBD76" stroke-width="1.5" stroke-linejoin="round" stroke-linecap="round"/>
  <text x="98" y="147" text-anchor="middle" font-size="11" font-weight="600" fill="#F3F6F9">MEMORIA</text>
  <text x="98" y="161" text-anchor="middle" font-size="11" font-weight="600" fill="#F3F6F9">DE AGENTE</text>
  <rect x="58" y="169" width="80" height="16" rx="8" fill="#232A36" stroke="#B7CC85" stroke-opacity="0.6"/>
  <text x="98" y="180" text-anchor="middle" font-size="9" fill="#B7CC85">open source</text>

  <!-- Card 2: configurador del stack -->
  <rect x="184" y="64" width="152" height="132" rx="12" fill="#1c212c" stroke="#313342"/>
  <circle cx="260" cy="100" r="13" stroke="#E0C15A" stroke-width="3"/>
  <circle cx="260" cy="100" r="4.5" stroke="#E0C15A" stroke-width="1.5"/>
  <g stroke="#E0C15A" stroke-width="4" stroke-linecap="round">
    <line x1="273" y1="100" x2="278" y2="100"/>
    <line x1="269.2" y1="90.8" x2="272.7" y2="87.3"/>
    <line x1="260" y1="87" x2="260" y2="82"/>
    <line x1="250.8" y1="90.8" x2="247.3" y2="87.3"/>
    <line x1="247" y1="100" x2="242" y2="100"/>
    <line x1="250.8" y1="109.2" x2="247.3" y2="112.7"/>
    <line x1="260" y1="113" x2="260" y2="118"/>
    <line x1="269.2" y1="109.2" x2="272.7" y2="112.7"/>
  </g>
  <text x="260" y="147" text-anchor="middle" font-size="11" font-weight="600" fill="#F3F6F9">CONFIGURADOR</text>
  <text x="260" y="161" text-anchor="middle" font-size="11" font-weight="600" fill="#F3F6F9">DEL STACK</text>
  <rect x="220" y="169" width="80" height="16" rx="8" fill="#232A36" stroke="#B7CC85" stroke-opacity="0.6"/>
  <text x="260" y="180" text-anchor="middle" font-size="9" fill="#B7CC85">open source</text>

  <!-- Card 3: este deck -->
  <rect x="346" y="64" width="152" height="132" rx="12" fill="#1c212c" stroke="#313342"/>
  <rect x="408" y="82" width="36" height="24" rx="3" fill="#232A36" stroke="#8394A3"/>
  <rect x="400" y="90" width="36" height="24" rx="3" fill="#1c212c" stroke="#DEBA87" stroke-width="1.5"/>
  <line x1="406" y1="97" x2="422" y2="97" stroke="#DEBA87" stroke-width="2"/>
  <line x1="406" y1="103" x2="428" y2="103" stroke="#A1AABB" stroke-width="1.5"/>
  <line x1="406" y1="108" x2="420" y2="108" stroke="#A1AABB" stroke-width="1.5"/>
  <text x="422" y="147" text-anchor="middle" font-size="11" font-weight="600" fill="#F3F6F9">ESTE</text>
  <text x="422" y="161" text-anchor="middle" font-size="11" font-weight="600" fill="#F3F6F9">DECK</text>
  <rect x="382" y="169" width="80" height="16" rx="8" fill="#232A36" stroke="#B7CC85" stroke-opacity="0.6"/>
  <text x="422" y="180" text-anchor="middle" font-size="9" fill="#B7CC85">open source</text>

  <!-- Primer paso -->
  <text x="260" y="220" text-anchor="middle" font-size="9" letter-spacing="2" fill="#A1AABB">PRIMER PASO</text>
  <g filter="url(#s45-glow)">
    <rect x="38" y="228" width="444" height="40" rx="12" fill="#1c212c" stroke="#DFBD76"/>
  </g>
  <text x="260" y="252" text-anchor="middle" font-size="11" fill="#F3F6F9"><tspan font-weight="600" fill="#DFBD76">mañana:</tspan> memoria + stop rules en TU repo · 1 semana · medí la diferencia</text>

  <!-- Destellos -->
  <g stroke="#DFBD76" stroke-width="1.5" stroke-linecap="round">
    <line x1="30" y1="208" x2="30" y2="218"/>
    <line x1="25" y1="213" x2="35" y2="213"/>
    <line x1="490" y1="278" x2="490" y2="286"/>
    <line x1="486" y1="282" x2="494" y2="282"/>
  </g>

  <!-- Cierre -->
  <text x="440" y="316" text-anchor="end" font-size="12" font-weight="600" fill="#DEBA87">tu loop recién arranca</text>
  <line x1="450" y1="312" x2="482" y2="312" stroke="#DEBA87" stroke-width="1.5"/>
  <path d="M492 312 L482 307 L482 317 Z" fill="#DEBA87"/>
</svg>
